<?xml version="1.0" encoding="UTF-8" standalone="no"?>
<!-- Created with Inkscape (http://www.inkscape.org/) -->

<svg
   version="1.1"
   id="svg1"
   width="439.77112"
   height="535.26941"
   viewBox="0 0 439.77112 535.26942"
   sodipodi:docname="Skull2b.svg"
   inkscape:version="1.3.2 (091e20ef0f, 2023-11-25)"
   xmlns:inkscape="http://www.inkscape.org/namespaces/inkscape"
   xmlns:sodipodi="http://sodipodi.sourceforge.net/DTD/sodipodi-0.dtd"
   xmlns="http://www.w3.org/2000/svg"
   xmlns:svg="http://www.w3.org/2000/svg">
  <defs
     id="defs1" />
  <sodipodi:namedview
     id="namedview1"
     pagecolor="#ffffff"
     bordercolor="#000000"
     borderopacity="0.25"
     inkscape:showpageshadow="2"
     inkscape:pageopacity="0.0"
     inkscape:pagecheckerboard="0"
     inkscape:deskcolor="#d1d1d1"
     showgrid="false"
     inkscape:zoom="1.0881882"
     inkscape:cx="229.28019"
     inkscape:cy="340.47419"
     inkscape:window-width="1920"
     inkscape:window-height="1011"
     inkscape:window-x="0"
     inkscape:window-y="0"
     inkscape:window-maximized="1"
     inkscape:current-layer="layer1" />
  <g
     inkscape:groupmode="layer"
     id="layer1"
     inkscape:label="Layer 1"
     transform="translate(282.02995,339.7701)">
    <path
       style="fill:#ff0000;stroke-width:3.04306"
       d="m -65.196894,194.6607 c -0.803368,-0.46337 -5.623573,-1.07669 -10.711568,-1.36296 -5.087994,-0.28635 -11.621974,-1.02204 -14.519955,-1.635 -2.897982,-0.61296 -6.053923,-0.90924 -7.013208,-0.65837 -0.959281,0.25075 -1.874853,0.0639 -2.034601,-0.41525 -0.159761,-0.47925 -2.043114,-0.98048 -4.185254,-1.11385 -2.14214,-0.13329 -4.15363,-0.59358 -4.46999,-1.02271 -0.31635,-0.42914 -1.66414,-0.89634 -2.99507,-1.03824 -3.9484,-0.42094 -8.88435,-4.93295 -17.49453,-15.99185 -4.46596,-5.7361 -13.3169,-16.78317 -19.66874,-24.54905 -6.35184,-7.76589 -13.36949,-16.65747 -15.59478,-19.75907 -2.22529,-3.10161 -6.04975,-8.38567 -8.4988,-11.74238 -4.34515,-5.95554 -5.13496,-8.25779 -7.18336,-20.939164 -0.41328,-2.558513 -2.47925,-43.211042 -2.88995,-56.866069 -0.0443,-1.472841 -0.44571,-2.677892 -0.89203,-2.677892 -0.44631,0 -0.61878,-0.547751 -0.38326,-1.217224 0.23553,-0.669472 0.0543,-2.228219 -0.4028,-3.463883 -0.48816,-1.319744 -0.46809,-2.022356 0.0487,-1.702987 0.48382,0.299132 -0.004,-2.043323 -1.08327,-5.205183 -1.68148,-4.924552 -2.63736,-6.185839 -6.66652,-8.796662 -5.00127,-3.240706 -12.45498,-12.0006985 -17.03965,-20.025884 -1.52984,-2.6778919 -3.04475,-5.087995 -3.36646,-5.355784 -0.32171,-0.267789 -1.52215,-2.699528 -2.66765,-5.403834 -1.51124,-3.567743 -2.18188,-7.524206 -2.44405,-14.418622 -0.19871,-5.225906 0.002,-9.726103 0.44579,-10.000465 0.4439,-0.27418 0.48362,-1.01629 0.0882,-1.648729 -0.39536,-0.63247 -0.80405,-1.588142 -0.9082,-2.123721 -0.10416,-0.535578 -1.79285,-5.574884 -3.75266,-11.198457 -4.77118,-13.690661 -8.63757,-28.783108 -14.14394,-55.21078 -3.20106,-15.36339 -5.30774,-62.32268 -3.34887,-74.6484 0.31018,-1.95169 0.19226,-3.54853 -0.26203,-3.54853 -3.074,0 -22.84993,-33.30048 -29.78202,-50.14961 -3.27622,-7.96318 -9.02504,-26.65601 -10.93092,-35.54293 -2.56298,-11.95084 -2.78455,-32.30562 -0.52396,-48.13476 1.45035,-10.1557 2.39724,-14.02552 3.76698,-15.39526 2.75438,-2.75438 6.63321,-1.39589 8.62034,3.01911 6.72644,14.94481 12.68286,26.25496 17.76476,33.73199 8.9519,13.17101 23.43358,30.66716 28.87513,34.88573 4.23492,3.28312 9.65831,6.30854 11.88082,6.62766 0.40424,0.058 1.73937,0.4874 2.96696,0.95413 1.83122,0.69623 2.80457,0.27601 5.42091,-2.34032 22.29263,-22.29264 55.16516,-43.35657 84.36922,-54.06179 23.064225,-8.45457 22.951973,-8.43758 55.505391,-8.40226 l 28.726477,0.0312 17.616968,5.95313 c 9.6893132,3.27423 21.6247991,7.966 26.523272,10.42617 10.907023,5.47784 30.428703,17.17002 35.709627,21.38769 2.142314,1.71098 5.038515,3.8316 6.435979,4.71247 2.701476,1.70281 7.927473,6.10055 18.716699,15.75027 4.330456,3.87308 7.558015,5.99447 9.2509,6.08036 3.211187,0.16292 13.990372,-5.36316 13.141298,-6.73702 -0.339636,-0.54953 -0.155501,-0.71365 0.409017,-0.36471 1.619912,1.00116 12.214622,-10.37573 22.527952,-24.1911 13.62901,-18.25692 13.44441,-17.96189 20.00552,-31.97821 7.66647,-16.37771 7.40014,-15.95266 10.47692,-16.72238 2.31896,-0.58014 2.81863,-0.23316 4.44567,3.08725 1.00819,2.05746 1.95044,5.49365 2.09389,7.63596 0.14333,2.14232 0.79357,6.52432 1.4447,9.73779 5.12183,25.27792 -3.05283,65.67344 -19.45614,96.1435 -8.1305,15.10286 -14.09408,24.66544 -19.08984,30.61048 -3.25403,3.87236 -3.39148,4.33974 -3.00724,10.22468 2.19609,33.63449 -3.16962,80.8673 -12.37122,108.900507 -7.70332,23.468649 -8.466915,26.61569 -8.055098,33.198739 1.025846,16.39801 -11.222923,42.4390179 -25.133932,53.435051 -2.73285,2.160206 -5.32012,3.927645 -5.749495,3.927645 -1.096262,0 -3.778506,12.22972 -5.33926,24.344472 -0.724492,5.623573 -1.606827,18.112287 -1.960734,27.752698 -0.746798,20.343336 -2.470812,33.581008 -5.167388,39.677078 -2.552579,5.77052 -9.494192,16.14495 -16.780706,25.07922 -3.276005,4.01683 -9.323141,11.66438 -13.438057,16.99457 -7.839589,10.15481 -25.3788986,30.52778 -29.7042113,34.50324 -1.3894607,1.27708 -3.3117307,2.39802 -4.2716937,2.49098 -6.901777,0.66829 -12.976008,1.86865 -12.123209,2.39571 0.560568,0.34645 -0.818903,0.64598 -3.065487,0.66564 -2.246584,0.0183 -9.343107,0.58049 -15.770047,1.24638 -6.426941,0.66585 -13.624025,1.22315 -15.993521,1.23846 -2.942352,0.0183 -3.868504,0.30607 -2.921337,0.90552 1.773203,1.12225 -0.07644,1.12764 -2.021388,0.006 z"
       id="path2" />
    <path
       style="fill:#f2f2f2"
       d="m 10.42827,42.12015 2.95164,12.70851 3.01095,15.57082 c 0,0 -3.71723,2.85229 -3.94558,3.32738 -0.22834,0.47508 -4.98815,7.55558 -4.98815,7.55558 l -5.92307,6.65252 c 0,0 -9.43259,9.38593 -9.9162,9.7206 -0.48361,0.33466 -9.24237,6.27837 -9.24237,6.27837 l -9.333,3.66115 c 0,0 -15.59791,3.52208 -16.19053,3.52208 -0.59262,0 -30.02135,3.37942 -30.02135,3.37942 l -20.76776,-4.82261 -17.78087,-7.13972 -11.44059,-8.20024 -13.40957,-11.85018 -6.74314,-7.30795 c 0,0 5.12499,-24.95109 5.63102,-25.62357 0.50604,-0.67247 2.91645,-9.33972 2.91645,-9.33972 l 4.91145,4.02857 10.92423,9.79462 12.18888,9.51154 7.54258,3.79664 8.87092,3.20221 14.03404,5.67992 c 0,0 12.19785,1.85951 12.85283,1.74467 0.65498,-0.11485 12.56527,-0.88333 13.04798,-1.11167 0.48271,-0.22835 14.70292,-3.42204 14.70292,-3.42204 l 12.75728,-6.35643 c 0,0 8.62598,-6.10072 9.43887,-6.55697 0.81289,-0.45624 13.96764,-10.33969 13.96764,-10.33969 0,0 6.61439,-7.34338 7.15901,-7.45823 0.54462,-0.11484 2.79349,-0.60558 2.79349,-0.60558 z"
       id="path3" />
    <path
       id="path4"
       style="fill:#aa4400"
       d="M 146.17318 -337.19783 L 139.78841 -322.13338 L 130.22396 -303.29354 L 116.33138 -284.44588 L 98.84505 -264.16854 C 98.84505 -264.16854 81.460433 -254.90295 80.022784 -254.52987 L 81.167316 -245.19198 L 87.659503 -225.33846 L 95.401691 -207.27401 L 103.11653 -190.81502 L 110.20833 -188.00252 L 126.972 -211.62362 L 143.41927 -243.22127 L 150.52669 -267.03573 L 155.01497 -303.72127 C 155.01497 -303.72127 154.12638 -331.41144 153.00716 -332.40096 C 151.88794 -333.39048 150.82357 -336.74666 150.82357 -336.74666 L 146.17318 -337.19783 z M -272.75261 -337.03573 C -273.93959 -337.03573 -275.62175 -336.29158 -275.62175 -336.29158 L -279.12761 -323.18221 L -279.98698 -308.37166 L -280.48503 -291.32479 L -274.79753 -265.60408 L -265.10026 -235.9244 L -246.19206 -202.72518 L -231.02214 -181.41658 L -222.97526 -178.26033 L -223.39714 -184.74276 L -220.16276 -206.47127 L -214.61589 -225.12948 L -203.75651 -242.39315 L -199.29948 -253.35213 L -212.86979 -258.15291 C -212.86979 -258.15291 -228.75745 -270.70331 -229.31706 -271.76424 C -229.87667 -272.82517 -246.83073 -292.76815 -246.83073 -292.76815 C -246.83073 -292.76815 -266.8528 -326.69226 -267.20182 -327.93026 C -267.55085 -329.16825 -271.56562 -337.03573 -272.75261 -337.03573 z " />
    <path
       style="fill:#000000;stroke-width:3.04306"
       d="m -65.196894,194.6607 c -0.803368,-0.46337 -5.623573,-1.07669 -10.711568,-1.36296 -5.087994,-0.28635 -11.621974,-1.02204 -14.519955,-1.635 -2.897982,-0.61296 -6.053923,-0.90924 -7.013208,-0.65837 -0.959281,0.25075 -1.874853,0.0639 -2.034601,-0.41525 -0.159761,-0.47925 -2.043114,-0.98048 -4.185254,-1.11385 -2.14214,-0.13329 -4.15363,-0.59358 -4.46999,-1.02271 -0.31635,-0.42914 -1.66414,-0.89634 -2.99507,-1.03824 -3.9484,-0.42094 -8.88435,-4.93295 -17.49453,-15.99185 -4.46596,-5.7361 -13.3169,-16.78317 -19.66874,-24.54905 -6.35184,-7.76589 -13.36949,-16.65747 -15.59478,-19.75907 -2.22529,-3.10161 -6.04975,-8.38567 -8.4988,-11.74238 -4.34515,-5.95554 -5.13496,-8.25779 -7.18336,-20.939164 -0.41328,-2.558513 -2.47925,-43.211042 -2.88995,-56.866069 -0.0443,-1.472841 -0.44571,-2.677892 -0.89203,-2.677892 -0.44631,0 -0.61878,-0.547751 -0.38326,-1.217224 0.23553,-0.669472 0.0543,-2.228219 -0.4028,-3.463883 -0.48816,-1.319744 -0.46809,-2.022356 0.0487,-1.702987 0.48382,0.299132 -0.004,-2.043323 -1.08327,-5.205183 -1.68148,-4.924552 -2.63736,-6.185839 -6.66652,-8.796662 -5.00127,-3.240706 -12.45498,-12.0006985 -17.03965,-20.025884 -1.52984,-2.6778919 -3.04475,-5.087995 -3.36646,-5.355784 -0.32171,-0.267789 -1.52215,-2.699528 -2.66765,-5.403834 -1.51124,-3.567743 -2.18188,-7.524206 -2.44405,-14.418622 -0.19871,-5.225906 0.002,-9.726103 0.44579,-10.000465 0.4439,-0.27418 0.48362,-1.01629 0.0882,-1.648729 -0.39536,-0.63247 -0.80405,-1.588142 -0.9082,-2.123721 -0.10416,-0.535578 -1.79285,-5.574884 -3.75266,-11.198457 -4.77118,-13.690661 -8.63757,-28.783108 -14.14394,-55.21078 -3.20106,-15.36339 -5.30774,-62.32268 -3.34887,-74.6484 0.31018,-1.95169 0.19226,-3.54853 -0.26203,-3.54853 -3.074,0 -22.84993,-33.30048 -29.78202,-50.14961 -3.27622,-7.96318 -9.02504,-26.65601 -10.93092,-35.54293 -2.56298,-11.95084 -2.78455,-32.30562 -0.52396,-48.13476 1.45035,-10.1557 2.39724,-14.02552 3.76698,-15.39526 2.75438,-2.75438 6.63321,-1.39589 8.62034,3.01911 6.72644,14.94481 12.68286,26.25496 17.76476,33.73199 8.9519,13.17101 23.43358,30.66716 28.87513,34.88573 4.23492,3.28312 9.65831,6.30854 11.88082,6.62766 0.40424,0.058 1.73937,0.4874 2.96696,0.95413 1.83122,0.69623 2.80457,0.27601 5.42091,-2.34032 22.29263,-22.29264 55.16516,-43.35657 84.36922,-54.06179 23.064225,-8.45457 22.951973,-8.43758 55.505391,-8.40226 l 28.726477,0.0312 17.616968,5.95313 c 9.6893132,3.27423 21.6247991,7.966 26.523272,10.42617 10.907023,5.47784 30.428703,17.17002 35.709627,21.38769 2.142314,1.71098 5.038515,3.8316 6.435979,4.71247 2.701476,1.70281 7.927473,6.10055 18.716699,15.75027 4.330456,3.87308 7.558015,5.99447 9.2509,6.08036 3.211187,0.16292 13.990372,-5.36316 13.141298,-6.73702 -0.339636,-0.54953 -0.155501,-0.71365 0.409017,-0.36471 1.619912,1.00116 12.214622,-10.37573 22.527952,-24.1911 13.62901,-18.25692 13.44441,-17.96189 20.00552,-31.97821 7.66647,-16.37771 7.40014,-15.95266 10.47692,-16.72238 2.31896,-0.58014 2.81863,-0.23316 4.44567,3.08725 1.00819,2.05746 1.95044,5.49365 2.09389,7.63596 0.14333,2.14232 0.79357,6.52432 1.4447,9.73779 5.12183,25.27792 -3.05283,65.67344 -19.45614,96.1435 -8.1305,15.10286 -14.09408,24.66544 -19.08984,30.61048 -3.25403,3.87236 -3.39148,4.33974 -3.00724,10.22468 2.19609,33.63449 -3.16962,80.8673 -12.37122,108.900507 -7.70332,23.468649 -8.466915,26.61569 -8.055098,33.198739 1.025846,16.39801 -11.222923,42.4390179 -25.133932,53.435051 -2.73285,2.160206 -5.32012,3.927645 -5.749495,3.927645 -1.096262,0 -3.778506,12.22972 -5.33926,24.344472 -0.724492,5.623573 -1.606827,18.112287 -1.960734,27.752698 -0.746798,20.343336 -2.470812,33.581008 -5.167388,39.677078 -2.552579,5.77052 -9.494192,16.14495 -16.780706,25.07922 -3.276005,4.01683 -9.323141,11.66438 -13.438057,16.99457 -7.839589,10.15481 -25.3788986,30.52778 -29.7042113,34.50324 -1.3894607,1.27708 -3.3117307,2.39802 -4.2716937,2.49098 -6.901777,0.66829 -12.976008,1.86865 -12.123209,2.39571 0.560568,0.34645 -0.818903,0.64598 -3.065487,0.66564 -2.246584,0.0183 -9.343107,0.58049 -15.770047,1.24638 -6.426941,0.66585 -13.624025,1.22315 -15.993521,1.23846 -2.942352,0.0183 -3.868504,0.30607 -2.921337,0.90552 1.773203,1.12225 -0.07644,1.12764 -2.021388,0.006 z m 29.035445,-7.46742 c 12.717643,-1.20052 22.355613,-4.08491 26.3028562,-7.87176 3.8268597,-3.67136 36.0136598,-42.00617 41.3478988,-49.24579 3.058335,-4.15073 7.970684,-10.81944 10.916365,-14.81936 2.945681,-3.99989 5.355784,-8.12628 5.355784,-9.16974 0,-1.04347 0.547751,-2.10254 1.217223,-2.35351 0.843293,-0.31611 0.618928,-0.9298 -0.730334,-1.99773 -1.922087,-1.52126 -1.917553,-1.54183 0.347639,-1.57241 1.61127,-0.0213 2.131724,-0.456918 1.746625,-1.460458 -0.301567,-0.786205 -0.129634,-1.688472 0.382725,-2.005011 1.093372,-0.675741 1.219324,-5.340386 0.185931,-6.887599 -0.393467,-0.589166 -1.372724,-1.321417 -2.176091,-1.627245 -1.150094,-0.437805 -1.092367,-0.572369 0.271441,-0.632895 1.575422,-0.06999 1.732839,-1.33283 1.739412,-13.953217 0.0061,-13.280092 0.279049,-18.371099 1.209555,-22.640359 0.233403,-1.071156 -0.01217,-2.495308 -0.543429,-3.164781 -0.668195,-0.84031 -0.592545,-1.217223 0.244358,-1.217223 0.930902,0 0.910604,-0.363494 -0.08734,-1.56605 -1.105604,-1.33219 -1.015043,-1.774195 0.60636,-2.959801 1.639265,-1.198661 1.702287,-1.524664 0.450129,-2.329066 -1.165735,-0.748897 -1.204169,-1.097996 -0.19293,-1.751493 0.7894,-0.510078 1.412223,-3.622853 1.660689,-8.299852 0.218796,-4.116011 0.621423,-7.845858 0.895024,-8.288563 0.273571,-0.442673 -2.835461,-0.225186 -6.908991,0.483056 -4.07353,0.708363 -7.783445,1.054937 -8.244256,0.770137 -0.46081,-0.28483 -0.837815,0.60356 -0.837815,1.974124 0,1.370563 -0.467718,2.49193 -1.039387,2.49193 -0.624862,0 -0.775402,-0.873875 -0.377461,-2.191002 0.53497,-1.770635 0.420429,-1.96113 -0.596926,-0.99289 -0.736786,0.701243 -1.310068,3.73003 -1.38234,7.303342 -0.138155,6.835167 -4.247928,20.391903 -7.984683,26.339258 -1.271633,2.023877 -2.565725,5.091281 -2.875782,6.816452 C 23.804669,69.5827 19.098639,81.627492 18.122,81.314331 17.619895,81.153353 16.586411,79.153546 15.825342,76.870369 l -1.38377,-4.151249 -3.302541,4.904011 c -1.8164015,2.697215 -3.3025706,5.43256 -3.3025706,6.07854 0,0.645951 -0.2930466,0.881392 -0.6513059,0.523163 -1.1670132,-1.166982 -4.2171929,2.510615 -4.2324995,5.103088 -0.00913,1.646052 -0.2872647,2.098037 -0.7959425,1.296587 -0.5486026,-0.864229 -2.77666955,0.947122 -7.4863511,6.086118 -3.687944,4.024083 -7.4563464,7.316513 -8.3742244,7.316513 -2.779591,0 -10.593351,3.73977 -10.60929,5.07771 -0.01126,0.94877 -0.194939,0.96864 -0.758471,0.0822 -0.561176,-0.88283 -3.005754,-0.57402 -9.966322,1.25903 -5.072521,1.33581 -15.531819,3.03655 -23.242887,3.77936 -9.296418,0.89554 -14.294746,1.78372 -14.835217,2.63611 -0.636097,1.00321 -0.818367,0.94663 -0.830004,-0.25775 -0.01095,-1.13576 -1.621509,-1.80277 -6.101029,-2.52674 -3.347365,-0.54096 -11.344523,-2.66535 -17.771464,-4.72085 -10.284743,-3.2893 -12.784173,-4.54959 -20.853003,-10.51456 -5.04221,-3.727504 -11.91645,-9.423897 -15.2761,-12.658638 -3.35964,-3.234741 -6.85043,-5.990262 -7.7573,-6.123335 -0.90687,-0.132981 -1.95061,-0.601034 -2.31943,-1.039843 -0.62635,-0.745215 -4.84248,-11.7421 -7.02597,-18.325819 -0.53288,-1.606735 -2.00218,-5.112339 -3.26511,-7.790231 -3.71036,-7.867342 -8.17965,-23.954747 -7.71008,-27.752698 0.23176,-1.874524 0.16558,-2.857767 -0.14713,-2.184946 -0.31268,0.67282 -1.06575,0.915991 -1.67347,0.540386 -0.60773,-0.375605 -2.43266,-0.767794 -4.05539,-0.871593 -1.62268,-0.103768 -4.04587,-0.478947 -5.38482,-0.833737 -5.8569,-1.55193 -6.81645,-1.562824 -6.81645,-0.07729 0,0.813836 0.54775,1.514317 1.21722,1.556586 0.82435,0.05204 0.86091,0.22336 0.11327,0.530283 -0.77871,0.319826 -0.84036,1.626637 -0.20925,4.435502 1.16265,5.17457 1.88656,9.628634 1.90738,11.735861 0.009,0.926703 0.43412,1.942932 0.94435,2.258285 0.51024,0.315321 0.65742,1.01066 0.32709,1.545143 -1.18618,1.919288 -1.18797,8.667849 -0.004,14.414027 0.84797,4.114855 0.89526,5.958675 0.15915,6.206806 -0.70049,0.236141 -0.63073,0.857625 0.21071,1.877324 0.69182,0.838393 0.91092,1.676482 0.48688,1.862474 -0.42403,0.185931 -0.63135,4.610599 -0.46071,9.832488 0.29299,8.9654 0.4286,9.501709 2.43445,9.626961 2.11027,0.131764 2.10984,0.135416 -0.0668,0.554597 -1.20506,0.232186 -2.1843,0.720171 -2.1761,1.084607 0.0268,1.188406 1.41438,2.793103 2.90643,3.361059 1.16347,0.442887 1.11394,0.571669 -0.24344,0.632895 -2.75725,0.124462 -1.95471,2.830106 0.97377,3.283035 2.58238,0.399402 2.59975,0.440513 0.48689,1.152041 -2.0734,0.698261 -3.08488,2.45827 -1.41275,2.45827 0.42803,0 0.59424,1.57606 0.36935,3.50241 -0.46986,4.02466 4.75242,15.36891 9.37042,20.35517 1.48807,1.60674 3.35979,3.86889 4.15939,5.02705 0.7996,1.15812 3.90183,4.88283 6.89384,8.27712 16.57481,18.80321 23.02992,26.28722 27.65484,32.06276 9.46641,11.82158 14.05737,14.55933 28.189332,16.81041 5.355783,0.85312 10.83329,1.75268 12.172235,1.99901 2.659208,0.48926 40.184118,-0.27844 47.537244,-0.97268 z m -36.825676,-13.05406 c 0,-0.53557 0.438201,-0.97378 0.973779,-0.97378 0.535578,0 0.973779,0.43821 0.973779,0.97378 0,0.53558 -0.438201,0.97378 -0.973779,0.97378 -0.535578,0 -0.973779,-0.4382 -0.973779,-0.97378 z m -11.685346,-1.94755 c -1.205584,-0.77912 -1.120558,-0.93462 0.486889,-0.89043 1.071157,0.0304 2.823959,0.43013 3.895115,0.89043 1.783638,0.76645 1.742657,0.84137 -0.486889,0.89039 -1.338946,0.0304 -3.091748,-0.37122 -3.895115,-0.89039 z m 39.032304,0.60511 c 0.747436,-0.67915 16.687776,-3.63637 17.143672,-3.18049 0.585877,0.58588 -1.779179,1.25709 -8.8831,2.52109 -5.96638,1.06157 -8.966784,1.30106 -8.260572,0.6594 z m -45.361867,-1.57889 c -1.858317,-0.79856 -1.847161,-0.84004 0.243445,-0.90534 1.205051,-0.0377 2.191002,0.36976 2.191002,0.90534 0,0.53558 -0.10955,0.94298 -0.243445,0.90531 -0.133894,-0.0377 -1.119845,-0.44502 -2.191002,-0.90531 z m -5.599229,-1.6187 c 0.669473,-0.27022 1.764975,-0.27022 2.434448,0 0.669473,0.27023 0.121722,0.49115 -1.217224,0.49115 -1.338946,0 -1.886697,-0.22092 -1.217224,-0.49115 z m -7.546787,-1.30264 c -1.20558,-0.77911 -1.12056,-0.93461 0.48689,-0.89043 1.07116,0.0304 2.82396,0.43014 3.895116,0.89043 1.783637,0.76646 1.742657,0.84138 -0.486886,0.8904 -1.33895,0.0304 -3.09175,-0.37122 -3.89512,-0.8904 z m 79.362979,0 c 1.071157,-0.46029 2.823959,-0.8369 3.895116,-0.8369 h 1.947557 l -1.947557,0.8369 c -1.071157,0.46029 -2.823959,0.83687 -3.895116,0.83687 h -1.947558 z m -90.561439,-6.81645 c -0.331,-0.53558 -0.13776,-0.97378 0.42943,-0.97378 0.56718,0 1.03124,0.4382 1.03124,0.97378 0,0.53558 -0.19323,0.97378 -0.42942,0.97378 -0.23617,0 -0.70024,-0.4382 -1.03125,-0.97378 z m 104.164126,-0.049 c -0.925303,-1.49718 0.342131,-2.46314 1.591976,-1.21332 0.6993254,0.69935 0.7161535,1.24403 0.051123,1.65509 -0.545224,0.33695 -1.284597,0.13815 -1.643008,-0.44177 z m 2.6921635,-3.24889 c -0.7276562,-1.59709 -0.7932341,-2.54488 -0.1761931,-2.54488 1.1847237,0 2.2252065,2.42097 1.7077343,3.97342 -0.2047979,0.614 -0.8938986,-0.0274 -1.5316629,-1.42854 z m -109.2597595,0.1905 c -0.017,-0.90565 0.43638,-1.93548 1.00759,-2.2885 1.71637,-1.06078 1.95701,0.0575 0.44301,2.05869 -1.24641,1.64748 -1.42341,1.67554 -1.4506,0.22975 z m -7.72676,-10.28207 c -2.71469,-3.07958 -4.94199,-6.0038 -4.94956,-6.49827 -0.0161,-1.05314 8.43793,7.89196 9.82283,10.39338 1.67823,3.03123 0.16902,1.82493 -4.87327,-3.89511 z m 121.6279148,3.65167 c 0,-0.53558 0.4640665,-0.97378 1.0312623,-0.97378 0.5671653,0 0.7603995,0.4382 0.429406,0.97378 -0.3309935,0.53558 -0.79506,0.97378 -1.0312623,0.97378 -0.2361413,0 -0.429406,-0.4382 -0.429406,-0.97378 z m 1.9475577,-2.5838 c 0,-0.34995 2.14645211,-2.90582 4.7699341,-5.67975 2.6234516,-2.77393 5.9394121,-7.35139 7.3687974,-10.17215 1.429386,-2.82077 2.820855,-4.90669 3.092113,-4.63543 1.023868,1.02386 -6.3961139,13.27208 -11.174386,18.44568 -2.36110945,2.55644 -4.0564585,3.40972 -4.0564585,2.04165 z M -73.311716,133.56508 c -1.010171,-1.01017 -0.763281,-4.21968 0.324591,-4.21968 0.535578,0 0.973779,1.0955 0.973779,2.43444 0,2.54942 -0.224943,2.85868 -1.29837,1.78524 z m 20.773947,-1.72778 c 0,-1.37057 0.438201,-2.4919 0.973779,-2.4919 0.535579,0 0.973779,0.85053 0.973779,1.89007 0,1.03954 -0.4382,2.16091 -0.973779,2.49193 -0.552285,0.34131 -0.973779,-0.47679 -0.973779,-1.8901 z m -25.763553,0.49671 c -0.308134,-0.49857 -0.114906,-1.18174 0.429418,-1.51815 0.544315,-0.33641 0.989664,0.0715 0.989664,0.9065 0,1.71047 -0.58432,1.96232 -1.419082,0.61165 z m 13.181305,-0.63533 c 0.04671,-1.13439 0.277466,-1.36514 0.588327,-0.58831 0.2813,0.70295 0.2467,1.54283 -0.07687,1.8664 -0.323581,0.32357 -0.55373,-0.25166 -0.51145,-1.27809 z m 4.868894,0 c 0.04671,-1.13439 0.277466,-1.36514 0.588327,-0.58831 0.2813,0.70295 0.246701,1.54283 -0.07687,1.8664 -0.32358,0.32357 -0.55373,-0.25166 -0.51145,-1.27809 z m 12.659125,0 c 0.04671,-1.13439 0.277467,-1.36514 0.588327,-0.58831 0.281301,0.70295 0.246701,1.54283 -0.07687,1.8664 -0.323581,0.32357 -0.553731,-0.25166 -0.51145,-1.27809 z m -36.087164,-1.84287 c -0.768065,-0.92546 -0.841939,-1.48419 -0.196247,-1.48419 1.176863,0 2.548957,1.84744 1.873645,2.52275 -0.245088,0.24497 -0.999934,-0.22214 -1.677413,-1.03856 z m 41.517512,-0.0669 c 0.283461,-0.73867 1.384309,-1.61882 2.446352,-1.9559 3.006375,-0.95418 2.921096,-0.0773 -0.164721,1.69368 -2.152386,1.2353 -2.678217,1.29573 -2.281625,0.26231 z m -89.04715,-1.9412 c -0.69059,-0.78298 -0.8538,-1.4236 -0.36268,-1.4236 0.49111,0 1.43845,0.6573 2.10518,1.46067 1.56177,1.88179 -0.0809,1.84689 -1.7425,-0.0371 z M 5.1018459,127.46083 c 0.6473195,-1.03653 1.5307803,-1.66589 1.9632599,-1.39859 0.43251,0.26718 0.1570218,1.11534 -0.612233,1.88457 -1.9943905,1.99439 -2.7339451,1.72839 -1.3510269,-0.48598 z m -95.1301009,-1.03677 c -0.331006,-0.53558 0.08134,-0.97378 0.91631,-0.97378 0.834976,0 1.518137,0.4382 1.518137,0.97378 0,0.53558 -0.412338,0.97378 -0.916308,0.97378 -0.50397,0 -1.187134,-0.4382 -1.518139,-0.97378 z M 13.83296,125.45028 c 0,-1.33895 0.220926,-1.8867 0.49115,-1.21722 0.270224,0.66947 0.270224,1.76497 0,2.43444 -0.270224,0.66948 -0.49115,0.12173 -0.49115,-1.21722 z m -151.32636,-7.7643 c -1.97781,-4.24382 -3.84491,-8.94362 -4.14913,-10.444 -0.40105,-1.97798 -0.0879,-1.65712 1.13888,1.16717 0.93059,2.14231 3.15384,6.48595 4.94055,9.65255 1.78671,3.16658 2.89242,6.11357 2.45713,6.54885 -0.43528,0.43531 -2.40963,-2.68078 -4.38743,-6.92457 z m 104.431209,7.32741 c 0,-0.26779 1.314601,-1.16668 2.921336,-1.99756 1.606735,-0.83087 2.921337,-1.29159 2.921337,-1.0238 0,0.26779 -1.314602,1.1667 -2.921337,1.99758 -1.606735,0.83088 -2.921336,1.29157 -2.921336,1.02378 z m 41.5798097,-0.22275 c -0.3097225,-0.50113 1.6013493,-5.25299 4.2467713,-10.55966 2.645453,-5.3067 4.80992,-8.73477 4.80992,-7.61793 0,2.65634 -8.3239227,19.36322 -9.0566913,18.17759 z m -106.8229947,-3.31575 -2.434444,-1.98453 3.164779,1.54429 c 1.740629,0.84938 3.164781,1.75213 3.164781,2.00617 0,0.96842 -1.551209,0.34477 -3.895116,-1.56593 z m 82.52776,-6.76655 c 1.205051,-0.48436 2.191002,-1.33298 2.191002,-1.88581 0,-0.55283 0.766851,-0.99058 1.704113,-0.97278 1.429599,0.0274 1.333803,0.34092 -0.594766,1.94756 -1.264391,1.05336 -3.017193,1.8874 -3.895115,1.85344 -1.094649,-0.0423 -0.907745,-0.33845 0.594766,-0.94241 z M -156.0011,108.3859 c -0.25839,-1.35173 -0.0904,-2.69219 0.37336,-2.97882 0.46376,-0.28666 0.84319,0.12629 0.84319,0.91739 0,0.79117 0.26599,2.13163 0.59107,2.97879 0.32509,0.84719 0.15709,1.54034 -0.37337,1.54034 -0.53044,0 -1.17586,-1.10597 -1.43425,-2.4577 z m 169.125332,0.0243 c 0.381021,-1.60674 1.111873,-3.34956 1.624111,-3.87291 0.512238,-0.52334 0.416169,0.57216 -0.213319,2.43445 -1.47421,4.36034 -2.304295,5.20674 -1.41064,1.43846 z m 16.593283,-4.13856 c 0.343683,-3.61516 1.027854,-8.325814 1.520373,-10.468128 1.239377,-5.390931 1.162631,-6.329562 -0.517563,-6.329562 -0.803368,0 -1.460669,-0.467749 -1.460669,-1.039418 0,-0.596257 0.830329,-0.775858 1.947558,-0.421251 2.492235,0.790983 2.682883,-1.876563 0.243445,-3.406339 -1.470893,-0.922412 -1.40425,-0.986682 0.486889,-0.469666 1.758797,0.480834 2.191003,0.201755 2.191003,-1.41417 0,-1.107248 -0.438201,-2.013166 -0.973779,-2.013166 -0.535579,0 -0.973779,-0.424446 -0.973779,-0.943227 0,-0.518781 0.638951,-0.698017 1.419891,-0.398367 0.935497,0.35899 1.583639,-0.232794 1.899904,-1.734665 0.264137,-1.25374 1.432063,-6.88063 2.595729,-12.504203 1.163666,-5.623573 3.579702,-14.34498 5.368991,-19.380908 1.789288,-5.035897 2.981954,-9.595161 2.650352,-10.131682 -0.340701,-0.551281 -0.114115,-0.673338 0.521367,-0.28057 0.714632,0.441669 1.124228,-0.0566 1.124228,-1.367673 0,-1.14912 0.438292,-1.791631 0.989664,-1.450869 0.544312,0.33641 0.679758,1.11309 0.300958,1.725992 -0.378769,0.612872 -1.042369,3.102247 -1.474666,5.531947 -0.824243,4.632418 -1.278481,6.885286 -2.113709,10.483247 -0.277223,1.193792 -0.09646,2.422274 0.401349,2.729989 0.52018,0.321468 0.224273,2.090551 -0.695765,4.15904 -0.88054,1.979753 -2.603246,9.077079 -3.828259,15.771809 -2.616392,14.298999 -4.085916,20.475892 -5.203449,21.871682 -0.445717,0.556667 -1.110382,2.545823 -1.47704,4.420348 -2.681908,13.71023 -6.029882,18.49203 -4.943023,7.0599 z m -187.806105,-2.75756 c -0.84011,-2.189272 -0.74027,-2.561955 0.48371,-1.805481 0.59113,0.365351 0.40634,-0.375636 -0.41065,-1.64663 -0.81699,-1.270995 -1.71504,-3.625501 -1.99566,-5.232236 -0.28063,-1.606735 -1.20155,-5.106374 -2.04649,-7.776963 -0.84495,-2.670588 -1.70741,-5.737992 -1.9166,-6.816452 -0.20918,-1.07846 -0.83195,-3.932728 -1.38393,-6.34283 -1.14937,-5.018522 -3.25912,-17.049256 -3.50932,-20.011643 -0.0928,-1.09821 -0.47175,-2.487183 -0.84223,-3.086636 -0.37048,-0.599452 -1.47918,-4.959334 -2.46378,-9.688612 -0.9846,-4.72931 -2.12285,-9.365562 -2.52946,-10.302824 -0.45199,-1.041913 -0.32038,-1.704113 0.33869,-1.704113 0.59288,0 1.07796,0.845088 1.07796,1.877993 0,1.032906 0.63644,2.514449 1.4143,3.292286 0.77786,0.777866 1.20065,1.627945 0.93953,1.88907 -0.48716,0.487163 2.86113,10.589936 4.51407,13.620245 0.50728,0.929989 0.92233,2.297053 0.92233,3.037916 0,0.740863 0.89152,4.137708 1.98116,7.548582 1.08964,3.410843 2.13184,7.302185 2.31601,8.64743 1.15745,8.454165 1.87277,10.80575 3.13913,10.319804 1.5973,-0.612933 1.74412,0.57103 0.25544,2.059725 -0.64682,0.646802 -0.80162,2.304661 -0.39013,4.17815 0.564,2.567886 1.04489,3.014607 2.7764,2.579114 1.9609,-0.493188 1.98184,-0.442612 0.32887,0.794208 -1.4122,1.056672 -1.63103,2.069707 -1.09388,5.063894 0.71207,3.969244 2.865,7.151219 4.8385,7.151219 1.49766,0 3.56396,2.409314 2.75774,3.215544 -0.33105,0.33102 -1.86095,-0.0493 -3.39978,-0.84494 -2.49096,-1.28813 -2.79788,-1.28387 -2.79788,0.0389 0,1.95812 -2.54784,1.916 -3.30404,-0.0548 z m 173.852219,-0.40832 c 0,-0.80337 0.376609,-2.337071 0.836902,-3.408228 0.527514,-1.2276 0.836902,-1.407597 0.836902,-0.486889 0,0.803367 -0.376609,2.337069 -0.836902,3.408227 -0.527514,1.22757 -0.836902,1.40757 -0.836902,0.48689 z m 29.076489,-3.834621 c 0,-0.502288 0.876401,-0.847218 1.947558,-0.766547 1.071157,0.08064 1.947558,0.491667 1.947558,0.913253 0,0.421615 -0.876401,0.766577 -1.947558,0.766577 -1.071157,0 -1.947558,-0.410965 -1.947558,-0.913283 z M 17.728076,93.315577 c 0,-1.338946 0.220926,-1.886696 0.491149,-1.217223 0.270224,0.669473 0.270224,1.764974 0,2.434447 -0.270223,0.669473 -0.491149,0.121722 -0.491149,-1.217224 z m -188.093086,0 c 0,-0.535578 0.63144,-0.973779 1.4032,-0.973779 0.77176,0 1.67402,0.438201 2.00502,0.973779 0.33101,0.535579 -0.30044,0.973779 -1.40319,0.973779 -1.10277,0 -2.00503,-0.4382 -2.00503,-0.973779 z m 212.855856,-0.13785 c 0.284222,-0.459776 2.09752,-0.835929 4.02971,-0.835929 1.932191,0 3.260729,0.25227 2.952346,0.560684 -0.920982,0.921012 -7.542465,1.182046 -6.982056,0.275397 z m 7.295034,-67.62094 c 0.04686,-1.134391 0.277527,-1.365146 0.588345,-0.588314 0.281179,0.702946 0.246792,1.542831 -0.07699,1.866399 -0.323569,0.323569 -0.553715,-0.251661 -0.511447,-1.278085 z M -58.867331,111.28956 c 8.033675,-0.82233 18.769587,-2.48226 23.857582,-3.68871 l 9.250899,-2.19353 -0.295237,-3.36799 c -0.434942,-4.961802 -2.127585,-9.708091 -3.431956,-9.623464 -0.627938,0.04078 -2.675409,0.627966 -4.549933,1.304895 l -3.408226,1.230826 0.13922,6.241893 c 0.07656,3.43303 -0.04172,4.70819 -0.26286,2.83366 -0.864283,-7.326129 -1.165504,-7.864811 -4.036742,-7.21877 -10.518194,2.366587 -9.990749,1.991195 -9.856508,7.0155 0.180758,6.76511 -0.08247,7.01909 -1.907468,1.8405 l -1.653632,-4.69233 -7.412998,-0.1765 -7.412995,-0.1765 -1.25567,4.61465 c -0.690616,2.53806 -1.439178,4.43115 -1.663467,4.20684 -0.224304,-0.22427 -0.390409,-2.65284 -0.369156,-5.39677 0.02374,-3.07325 -0.407512,-5.106466 -1.123221,-5.294862 -0.639027,-0.168281 -3.418508,-0.966993 -6.17663,-1.775016 l -5.014761,-1.469189 -0.584468,2.922341 c -0.32146,1.607166 -0.584471,3.962946 -0.584471,5.234946 0,1.272 -0.396502,2.31272 -0.881118,2.31272 -0.774032,0 -0.595207,-5.12159 0.346568,-9.925725 0.233342,-1.190263 -0.844951,-2.04661 -3.878671,-3.080276 -3.846959,-1.310798 -4.331508,-1.288462 -5.736988,0.264746 -0.881202,0.973718 -1.535138,3.426576 -1.535138,5.758168 0,3.224977 -0.351123,4.058827 -1.704114,4.046997 -1.27487,-0.0122 -1.38421,-0.21789 -0.43408,-0.82044 0.797417,-0.50579 1.186246,-2.424103 1.044881,-5.155005 -0.123822,-2.39224 0.08585,-4.852675 0.465923,-5.467677 1.091749,-1.766465 -4.986164,-4.551047 -6.745904,-3.090622 -0.76489,0.634813 -1.40558,1.648304 -1.42376,2.252199 -0.0183,0.603895 -0.83817,2.800009 -1.82223,4.880275 -0.98406,2.080266 -1.58028,4.58117 -1.32494,5.5576 0.41517,1.58759 5.10458,3.83629 9.02289,4.32668 0.80337,0.10042 2.117967,0.46176 2.921334,0.8027 6.153093,2.61125 18.629705,6.333 21.423136,6.39048 1.874524,0.0387 9.981233,-0.60273 18.014909,-1.42509 z m 39.720285,-8.35591 c 2.254879,-1.13698 4.206271,-2.1564 4.336453,-2.26537 0.562631,-0.47101 -3.903067,-12.221597 -4.644697,-12.221597 -0.451544,0 -1.945017,0.427337 -3.31883,0.949678 -1.884664,0.716549 -2.49784,1.639356 -2.49784,3.759182 0,3.666308 1.12675,11.845377 1.631822,11.845377 0.216331,0 2.238218,-0.93026 4.493092,-2.06727 z m -90.873954,-9.704678 1.90639,-7.216736 -2.15528,-1.682477 c -2.77367,-2.165167 -4.47418,-2.173444 -4.4478,-0.0213 0.0116,0.937263 -0.60708,4.187463 -1.37459,7.22264 -1.39414,5.513262 -1.39306,5.520383 1.13582,7.433493 1.39221,1.053198 2.64329,1.817408 2.78018,1.698208 0.13688,-0.11929 1.10677,-3.464277 2.15528,-7.433491 z m 100.3844592,3.738276 c 2.1548509,-2.58304 2.2674441,-3.801115 0.7813054,-8.451427 -0.6111984,-1.912562 -1.2677686,-4.059045 -1.4590246,-4.769995 -0.251966,-0.93711 -1.106274,-0.66929 -3.105533,0.973779 l -2.757773,2.26641 1.389005,5.355783 c 2.032763,7.838072 2.283876,8.063532 5.1520202,4.62545 z M -57.406663,96.91229 c 1.874524,-0.639255 3.439518,-1.600466 3.477763,-2.136044 0.465758,-6.522615 1.799245,-14.119794 2.478352,-14.119794 1.009045,0 1.176827,9.096707 0.186053,10.087467 -0.370855,0.370857 -0.806307,1.539392 -0.967668,2.596733 -0.349225,2.28832 1.888318,2.510341 7.712818,0.765269 5.101046,-1.528316 6.566182,-4.044378 7.274427,-12.492305 0.552774,-6.593487 0.474726,-6.991976 -1.265761,-6.462149 -3.746979,1.14063 -11.686162,2.815134 -15.000875,3.163899 -1.874524,0.19719 -5.07437,0.594431 -7.110773,0.882609 -5.400356,0.764233 -15.759205,-1.314541 -23.048701,-4.625298 -8.739395,-3.969305 -16.294911,-6.537769 -17.040022,-5.792645 -0.34186,0.341857 -0.92639,0.185931 -1.29895,-0.346513 -0.69115,-0.987747 -5.62971,-4.424943 -7.62236,-5.305087 -0.60627,-0.267789 -5.14252,-3.992493 -10.08055,-8.27712 -4.93803,-4.284627 -10.20104,-8.796023 -11.69558,-10.025297 l -2.71734,-2.235096 0.13877,7.10399 c 0.16356,8.374499 1.83348,9.47283 2.65792,1.748177 l 0.57161,-5.355784 0.15873,7.153075 c 0.15297,6.894355 1.52532,11.072414 4.78417,14.565207 1.00095,1.07283 1.23134,1.075995 1.29666,0.01826 0.0437,-0.707724 0.66979,0.05782 1.39133,1.701222 0.72154,1.643404 1.97404,3.537556 2.78333,4.20919 1.29862,1.07776 1.41028,0.297915 0.95063,-6.639651 -0.31705,-4.785149 -0.1514,-7.86086 0.42334,-7.86086 0.51929,0 1.13798,3.692661 1.37486,8.205943 0.42798,8.154029 1.30797,10.437449 4.72776,12.267666 1.49966,0.802607 1.64249,0.286352 1.42916,-5.165501 -0.13036,-3.33148 0.11104,-6.93361 0.53647,-8.004767 0.49036,-1.23469 0.79854,0.794939 0.84193,5.54491 0.058,6.34986 0.40257,7.860039 2.25944,9.90254 1.20505,1.325526 3.14462,2.683826 4.31015,3.018471 2.06798,0.593701 2.11029,0.425116 1.75247,-6.981203 -0.34231,-7.085215 -0.31396,-7.219749 0.42656,-2.024304 1.09723,7.698118 2.736261,11.185281 5.775018,12.286807 1.422261,0.515555 3.314426,1.233443 4.204813,1.595324 1.402957,0.570208 1.631016,-0.163412 1.709874,-5.499599 0.104164,-7.049763 0.393069,-9.230237 1.349657,-10.186822 0.372553,-0.372562 0.67737,1.959456 0.67737,5.182268 0,10.517116 2.364475,13.808154 11.097619,15.446507 l 3.726981,0.699203 -0.352402,-7.710502 c -0.317832,-6.95406 -0.17738,-7.710442 1.431698,-7.710351 1.492171,6.1e-5 1.669085,0.483785 1.081181,2.95621 -1.942086,8.167388 -0.323383,13.747749 4.185731,14.430003 4.545959,0.687853 5.493388,0.62754 9.016337,-0.57383 z M -124.59741,60.531668 c 0,-6.657239 0.69089,-6.450737 1.53236,0.458042 0.41561,3.412334 0.26645,5.060059 -0.45802,5.060059 -0.65687,0 -1.07434,-2.144261 -1.07434,-5.518101 z m 6.7475,31.122916 c 0.74529,-2.699223 0.69548,-3.803428 -0.19768,-4.382005 -0.92584,-0.599726 -0.89728,-0.964832 0.12714,-1.62551 0.82534,-0.532292 0.95101,-1.080834 0.33486,-1.461642 -1.34506,-0.831303 -0.25464,-4.619455 1.13255,-3.934493 0.60859,0.30035 -0.19907,-0.567896 -1.79482,-1.929817 -1.59574,-1.36189 -3.18155,-2.16045 -3.52404,-1.774529 -0.34248,0.38589 -1.52562,3.43394 -2.62921,6.773453 l -2.00651,6.071846 3.56142,2.935609 c 1.95878,1.614586 3.66007,2.935639 3.78066,2.935639 0.1206,0 0.66761,-1.623837 1.21561,-3.608551 z M -0.12993327,83.231793 C -0.65528697,81.547551 -1.319891,79.402712 -1.6067906,78.46545 c -0.6406857,-2.093047 -1.2145762,-2.120252 -3.9729265,-0.188366 -2.2846983,1.600284 -2.8112084,5.717299 -1.5424353,12.061195 l 0.6217882,3.108971 3.6628388,-3.576659 c 3.36498416,-3.285804 3.58514948,-3.825703 2.70759213,-6.63892 z M -29.472669,88.495128 c 3.980543,-2.427083 5.106965,-4.624506 6.169543,-12.035389 l 0.864293,-6.027965 -0.36769,7.546786 c -0.202241,4.150733 -0.160612,7.546786 0.09245,7.546786 1.503135,0 6.304221,-3.232702 7.151013,-4.814971 0.551463,-1.03041 1.002657,-4.385413 1.002657,-7.455555 0,-7.156058 0.934584,-6.384277 1.102744,0.910665 0.06999,3.034448 0.329107,5.517188 0.575868,5.517188 1.317188,0 5.5804226,-4.257331 5.671897,-5.664046 0.058731,-0.901628 0.1816706,-4.623015 0.2732667,-8.269786 0.093118,-3.707481 0.5583709,-6.388324 1.0553328,-6.081188 0.4888066,0.302175 0.7744281,3.841283 0.6346604,7.864877 -0.2452705,7.060657 -0.1914084,7.258821 1.5457218,5.686838 1.3126235,-1.187919 1.7997564,-3.004595 1.7997564,-6.711923 0,-5.674179 0.8979154,-11.168087 1.82583537,-11.171435 0.33473648,-0.0012 0.47301308,3.175737 0.30728809,7.059897 l -0.30126284,7.062088 2.69885858,-3.895116 c 2.1277373,-3.070842 2.8301361,-5.440624 3.3191557,-11.198457 0.4965055,-5.845594 0.6726682,-6.428675 0.8825784,-2.921336 0.144241,2.410103 0.2102754,4.710655 0.1469797,5.112339 -0.2312724,1.464959 1.6420651,0.682923 2.2673224,-0.946483 0.5512197,-1.436445 0.7733935,-1.471349 1.5499215,-0.243444 0.656327,1.037744 0.891738,0.492701 0.852969,-1.974854 C 11.60467,50.605788 11.441866,50.338638 10.758061,51.929975 10.026507,53.632384 9.8940734,53.50981 9.7058906,50.956196 9.5875156,49.349461 9.594819,46.753336 9.7211059,45.187044 9.9447707,42.439526 9.7028476,42.572265 2.8080671,48.954746 -8.4334796,59.363347 -20.211703,68.020393 -27.895619,71.522041 l -7.065176,3.219709 0.05115,7.82623 c 0.05624,8.606927 0.409386,8.991996 5.435817,5.927148 z M -126.0761,84.653875 c 0.3146,-1.785728 1.23402,-4.831191 2.04316,-6.767733 1.34997,-3.230937 1.33188,-3.622853 -0.21965,-4.757366 -0.92995,-0.679971 -1.97122,-1.236334 -2.31393,-1.236334 -0.94445,0 -2.61189,3.870497 -3.77561,8.76401 -0.94532,3.975178 -0.84983,4.542465 1.02861,6.110462 2.466,2.058447 2.50727,2.031516 3.23743,-2.113039 z M 4.2692954,76.24989 C 2.67668,71.575842 1.9422377,71.068595 0.05678883,73.340451 -1.1493885,74.793816 -0.87460023,77.150757 1.1034794,82.317597 l 1.0416391,2.72086 1.8044427,-2.21556 C 5.6314903,80.757755 5.6532177,80.31146 4.2692954,76.24989 Z M -129.42404,72.186615 c 1.16826,-1.87066 1.10213,-2.386763 -0.53806,-4.199148 l -1.87002,-2.066359 -2.14427,4.68978 -2.14426,4.68978 -0.081,-3.651671 c -0.0446,-2.008419 0.31027,-3.65167 0.78855,-3.65167 1.44248,0 1.85227,-2.285551 0.87299,-4.868895 l -0.92285,-2.434447 -1.73404,3.408226 c -0.95373,1.874524 -1.99232,5.695207 -2.30799,8.490409 -0.55883,4.948531 -0.47918,5.160541 3.0283,8.060485 l 3.60222,2.978241 1.05926,-4.655941 c 0.5826,-2.560795 1.65865,-5.615722 2.39123,-6.78879 z M 9.6716988,75.976745 C 10.248724,74.884773 9.9674841,72.862478 8.8403047,69.996069 7.234452,65.912953 7.0729873,65.784931 6.017198,67.757716 c -0.8481918,1.584886 -0.8362326,3.152944 0.049298,6.464036 1.1764466,4.398589 1.9970683,4.798082 3.6051423,1.754993 z M -49.186871,75.035161 c 0.521797,-0.322473 1.873265,-0.684901 3.003259,-0.805376 4.639271,-0.494619 10.200084,-2.493117 10.200084,-3.665821 0,-0.689344 1.154975,-2.315707 2.566607,-3.614119 2.444094,-2.24806 2.513567,-2.258771 1.455432,-0.223969 -0.611147,1.175229 -1.547019,2.406146 -2.079715,2.735375 -0.5327,0.329229 -0.968545,1.048638 -0.968545,1.598701 0,1.099945 9.345669,-3.902844 19.962467,-10.686036 9.2208336,-5.891271 19.9443604,-15.533233 21.5749836,-19.398923 0.7342292,-1.740629 1.5740527,-3.164781 1.8662472,-3.164781 0.2921336,0 0.2160572,0.547751 -0.1691941,1.217224 -0.3852513,0.669473 -0.3267941,0.877283 0.1299386,0.461784 0.4567023,-0.415469 0.9716183,-1.680864 1.1442511,-2.811939 0.5554496,-3.639803 6.1500826,-13.104598 10.2971946,-17.420539 3.666794,-3.816026 4.515412,-4.221848 9.424475,-4.506892 2.967165,-0.172237 5.942577,-0.517959 6.61205,-0.768129 0.669473,-0.250139 1.217223,-0.132981 1.217223,0.260182 0,0.95975 14.186285,-0.312096 18.628329,-1.670061 5.505046,-1.682964 14.845107,-9.7394322 19.122918,-16.4949014 0.896363,-1.4155093 2.813399,-4.1073384 4.2601,-5.9818627 3.835106,-4.9692549 7.343449,-14.3982939 7.065252,-18.9886879 -0.719196,-11.868326 -0.766972,-18.977429 -0.153674,-22.883804 0.892985,-5.688237 2.443637,-10.915939 3.445807,-11.616877 1.117199,-0.781427 6.058031,-11.18878 6.058031,-12.760672 0,-0.714784 0.846275,-3.081189 1.88061,-5.258711 1.034306,-2.177521 2.096425,-5.273712 2.360227,-6.880447 0.961063,-5.853172 1.894243,-9.773295 2.705223,-11.363747 0.45597,-0.894272 1.29926,-4.838082 1.874,-8.764012 2.77658,-18.96671 3.11491,-26.42053 2.64454,-58.26145 l -0.26626,-18.0149 -3.11156,-3.03666 -3.11159,-3.03666 -1.066989,4.98421 c -0.586854,2.74132 -3.430562,10.07541 -6.319338,16.29798 -2.888776,6.22256 -5.491413,13.34679 -5.783638,15.83162 -0.292134,2.48482 -1.416301,6.3495 -2.497926,8.58817 -1.081594,2.23867 -1.966546,4.77676 -1.966546,5.6402 0,0.86345 -0.425663,1.99556 -0.945905,2.51581 -0.520271,0.52026 -1.145011,2.03205 -1.388304,3.35954 -0.243445,1.32749 -0.505148,2.41362 -0.581863,2.41362 -0.738855,0 -1.388152,15.46386 -0.848405,20.20591 0.106811,0.93727 0.722422,1.70412 1.368311,1.70412 1.723619,0 8.577258,-7.77098 10.09124,-11.4419 0.717858,-1.74063 1.637105,-3.16479 2.042715,-3.16479 1.20925,0 3.190251,-5.68489 2.556504,-7.33642 -0.33784,-0.88038 -0.178323,-1.27642 0.376,-0.9338 0.536248,0.33143 0.962611,-0.48332 0.962611,-1.83951 0,-1.33895 -0.41906,-2.69345 -0.931237,-3.00999 -0.512207,-0.31656 -0.654683,-1.29633 -0.31663,-2.17728 0.542912,-1.41475 0.709459,-1.38269 1.426921,0.27464 0.488137,1.12757 0.643363,-0.94606 0.389024,-5.19626 -0.232794,-3.88993 -0.09738,-6.87114 0.301263,-6.6249 0.398428,0.24624 0.654014,-0.96361 0.567987,-2.68855 -0.08612,-1.72493 0.193539,-4.00213 0.621636,-5.06043 1.03111,-2.55009 0.900046,23.3922 -0.143328,28.33972 -1.857574,8.80946 -3.38239,12.7193 -5.856458,15.0168 -7.83536,7.27614 -9.834893,8.79068 -10.810071,8.188 -0.738947,-0.4567 -0.900259,0.36451 -0.517381,2.63411 3.661682,21.706584 4.275406,28.129051 2.688025,28.129051 -0.848375,0 -1.681625,-2.776244 -4.018785,-13.38946 -0.560228,-2.543997 -1.644165,-5.769022 -2.408795,-7.166711 -0.764599,-1.397689 -1.109621,-2.821841 -0.766668,-3.164781 0.342922,-0.342939 0.163412,-0.623529 -0.398975,-0.623529 -0.908871,0 -2.177918,-2.64508 -2.56962,-5.35578 -0.07729,-0.53558 -0.753857,-2.4275 -1.503302,-4.20428 -1.0071,-2.38775 -1.590546,-2.89581 -2.236435,-1.94756 -1.905229,2.7971 0.801633,-16.23003 3.003742,-21.11397 3.581529,-7.94327 7.30672,-15.21464 8.020621,-15.65587 0.468479,-0.28954 0.851783,-1.37696 0.851783,-2.41651 0,-1.03954 0.438201,-1.89009 0.973779,-1.89009 0.535578,0 0.973779,-0.68378 0.973779,-1.51951 0,-0.83574 1.818045,-5.3273 4.040087,-9.98124 5.969812,-12.50335 5.989835,-12.55703 5.175208,-13.8751 -0.468661,-0.75832 -0.354851,-0.97152 0.301872,-0.5656 0.579763,0.35832 1.272059,-0.12173 1.538418,-1.06677 3.044885,-10.80296 2.287681,-18.36832 -2.853111,-28.5067 -2.834396,-5.58984 -7.228756,-18.99552 -7.228756,-22.0525 0,-1.28582 -1.545053,-5.59377 -3.433484,-9.57323 -2.674331,-5.63565 -3.786174,-7.10005 -5.028624,-6.62327 -1.071918,0.41133 -1.362804,0.23615 -0.886808,-0.53402 0.401349,-0.6494 0.0563,-1.39636 -0.796217,-1.72349 -1.149698,-0.44119 -1.270994,-1.01372 -0.514338,-2.42757 0.739129,-1.38109 0.666035,-1.85022 -0.288177,-1.85022 -1.163088,0 -4.632692,-3.27769 -4.632692,-4.37644 0,-0.68193 -19.134633,-19.08001 -25.318251,-24.34369 -10.190322,-8.6743 -30.791283,-21.34637 -41.9944268,-25.83165 -2.47717171,-0.99175 -6.4209761,-2.65202 -8.7640098,-3.68947 -5.4039254,-2.39277 -12.0544604,-4.24877 -16.4323054,-4.58588 -1.874524,-0.14433 -7.790231,-0.98125 -13.146015,-1.85979 -6.331318,-1.03856 -15.199875,-1.57548 -25.351809,-1.53483 -17.356653,0.0695 -20.827852,0.33488 -32.101144,2.45424 -4.284627,0.8055 -9.104829,1.63995 -10.711569,1.85432 -1.60673,0.21438 -5.43004,1.30562 -8.49623,2.425 -3.0662,1.11938 -6.01557,2.03524 -6.55417,2.03524 -0.53859,0 -4.66859,1.7528 -9.17779,3.89512 -4.50919,2.14231 -8.4395,3.89511 -8.73403,3.89511 -0.29454,0 -2.48338,1.3146 -4.86411,2.92134 -2.38073,1.60673 -5.04566,2.92133 -5.92206,2.92133 -0.87639,0 -1.84568,0.65731 -2.15396,1.46067 -0.30828,0.80337 -1.13441,1.46067 -1.83585,1.46067 -0.70143,0 -1.4214,0.35416 -1.59993,0.78702 -0.17849,0.4328 -2.51556,2.27702 -5.19345,4.0982 -6.43473,4.37615 -6.96708,4.80029 -10.72038,8.54124 -1.76682,1.76102 -3.37213,2.7227 -3.56733,2.13707 -0.19522,-0.58563 -1.76196,0.9314 -3.48167,3.37116 -1.7197,2.43977 -3.6902,4.43594 -4.37887,4.43594 -1.32905,0 -11.12261,10.42945 -13.11673,13.9684 -0.6505,1.15442 -1.19825,2.8964 -1.21723,3.87106 -0.0189,0.97465 -1.3802,3.72802 -3.02495,6.11858 -1.64475,2.39056 -3.82288,6.2283 -4.84028,8.52831 -1.01741,2.30002 -2.67888,5.24326 -3.69216,6.54055 -2.11827,2.71199 -5.99046,10.10857 -6.51963,12.45367 -0.19737,0.87471 -1.71661,5.09598 -3.37608,9.38061 -3.25644,8.40786 -5.16659,24.50019 -3.20437,26.99556 0.53803,0.68421 1.25541,2.70505 1.59419,4.49075 0.33877,1.78571 1.43844,4.41491 2.44371,5.84268 1.00527,1.42776 2.16029,3.69144 2.5667,5.03038 0.40643,1.33895 1.72833,4.18725 2.93757,6.32957 1.20924,2.14231 2.01511,4.3771 1.79083,4.96619 -0.22431,0.58909 0.2641,1.62869 1.0853,2.31023 0.8212,0.68154 1.4931,1.84876 1.4931,2.59381 0,0.74506 0.41466,2.11555 0.92146,3.04555 9.42694,17.29872 13.97014,35.1005 10.06054,39.42057 -0.85033,0.93961 -1.2292,1.70837 -0.84194,1.70837 0.38727,0 -0.13821,1.20506 -1.16774,2.6779 -1.02952,1.47284 -2.16771,3.90086 -2.5293,5.395604 -0.36159,1.494748 -1.00976,2.499974 -1.44038,2.23384 -0.43061,-0.266146 -0.79675,0.04458 -0.81363,0.690506 -0.0796,3.044751 -5.51652,23.08442 -6.26299,23.08442 -1.8323,0 -0.38073,-18.765297 2.50468,-32.3795 0.1988,-0.938 -0.0551,-1.44802 -0.56417,-1.13339 -0.50909,0.31464 -1.54453,0.0584 -2.30098,-0.56938 -0.75644,-0.62779 -1.90045,-0.81691 -2.54224,-0.42026 -0.67457,0.4169 -0.9126,0.30972 -0.56418,-0.25404 0.78116,-1.26393 -4.56034,-6.40424 -5.63778,-5.42544 -0.45042,0.40918 -0.52187,0.22558 -0.15878,-0.408 0.36308,-0.63358 -0.42594,-3.09733 -1.75337,-5.475 -1.32744,-2.37766 -2.14911,-4.58744 -1.82594,-4.91062 0.32318,-0.32317 0.004,-1.29086 -0.70945,-2.15042 -1.57616,-1.89916 -2.69039,-28.67137 -1.19328,-28.67137 0.51666,0 0.97157,1.64325 1.01089,3.65167 0.21156,10.8036 1.1647,20.06798 2.12574,20.66193 0.59932,0.37041 0.82871,1.35354 0.50975,2.18475 -0.34274,0.89317 0.46469,2.63844 1.97415,4.26718 1.48854,1.60617 2.36399,3.48283 2.09843,4.49833 -0.25059,0.95833 -0.12799,1.53993 0.27245,1.29243 0.40046,-0.24749 1.68515,0.84448 2.85488,2.42661 1.16972,1.58213 3.2487,3.61173 4.61996,4.51021 3.70585,2.42817 4.32342,0.54814 3.73114,-11.35841 -0.27975,-5.62357 -0.55204,-11.46638 -0.60513,-12.98402 -0.0665,-1.90013 -0.35285,-2.35496 -0.91974,-1.46067 -0.53896,0.85022 -0.82838,0.90585 -0.83815,0.1611 -0.008,-0.62567 -0.27533,-1.94027 -0.59365,-2.92133 -0.49378,-1.52188 -0.40881,-1.56931 0.57874,-0.32309 0.96837,1.22199 1.04568,1.14244 0.47314,-0.48689 -0.37639,-1.07116 -1.09872,-3.38293 -1.60518,-5.13727 -0.55696,-1.92931 -1.34425,-2.92801 -1.9924,-2.52743 -0.61337,0.37908 -0.79726,0.2184 -0.43005,-0.37575 0.35284,-0.57092 0.0116,-2.28187 -0.75859,-3.80213 -0.77007,-1.52026 -2.12495,-4.85117 -3.01083,-7.40203 -1.20344,-3.46524 -3.16031,-6.00686 -7.73932,-10.05199 -10.6345,-9.39462 -9.81216,-9.58947 -9.98571,2.36608 -0.58793,40.50125 0.21934,49.31058 6.75103,73.67191 0.57439,2.142314 1.17389,4.771516 1.33222,5.842673 0.40823,2.76182 7.32539,20.288926 10.29584,26.088175 0.49124,0.959051 0.65648,2.126672 0.36721,2.594725 -0.28927,0.468053 0.008,1.029102 0.6614,1.246802 0.67944,0.226404 1.27453,2.448902 1.39118,5.195506 0.11211,2.639854 0.50074,6.990728 0.8636,9.66862 0.4369,3.224243 0.15532,6.796216 -0.83362,10.574721 -1.39737,5.339017 -1.37131,6.101029 0.40541,11.853354 1.95811,6.339635 6.50718,13.0496717 15.4775,22.8298806 2.69028,2.9331741 4.89141,5.6719272 4.89141,6.086118 0,0.4141907 0.63553,0.7530962 1.41229,0.7530962 0.77675,0 1.7627,0.5953136 2.191,1.3229394 1.7087,2.9028348 9.9766,4.4923458 25.27249,4.8586388 10.22331,0.244967 11.07263,0.421616 14.4683,3.011625 3.94781,3.011137 10.93561,13.121853 11.78738,17.05525 0.9396,4.339006 1.31111,5.050017 2.31462,4.429811 0.53936,-0.333337 0.98066,0.04412 0.98066,0.838637 0,1.765917 14.1099,14.744838 22.29747,20.510248 3.28723,2.314733 8.05043,4.769568 10.584897,5.4552 2.534463,0.685632 5.22761,1.726327 5.984769,2.312694 1.174197,0.909358 1.192039,0.70812 0.121296,-1.368311 -1.147522,-2.225359 -0.973024,-2.170218 2.031574,0.641872 3.190863,2.986458 9.05576,6.026292 13.024712,6.750844 1.071157,0.195669 3.481259,0.761191 5.355784,1.256997 3.475155,0.919186 21.10414,0.426363 22.826475,-0.6381 z m -7.612659,-1.644256 c 0.313614,-0.817274 1.400808,-3.115118 2.415988,-5.106344 l 1.845773,-3.620388 -0.03061,3.370705 c -0.02221,2.433413 -0.693887,3.853273 -2.415985,5.106314 -1.928949,1.40355 -2.276278,1.451326 -1.815175,0.249835 z m -13.582387,-0.959598 c -1.145103,-0.867972 -1.664407,-2.292671 -1.460668,-4.007404 0.308652,-2.597677 0.366786,-2.565116 2.458013,1.377745 2.238434,4.220388 1.98454,4.88983 -0.997345,2.629659 z m 16.446088,-12.50965 c 0.365684,-0.960359 0.910182,-1.500806 1.209996,-1.201004 0.299802,0.299741 6.18e-4,1.08555 -0.664881,1.746107 -0.961719,0.954577 -1.07357,0.842714 -0.545115,-0.545103 z m -17.831945,-4.096566 c 0.01096,-2.142314 0.210214,-2.904052 0.443145,-1.692763 0.232916,1.21129 0.224091,2.964092 -0.01978,3.895116 -0.243718,0.931024 -0.434302,-0.05995 -0.423493,-2.202353 z m 18.374233,-2.921337 c -0.01674,-1.071157 0.571782,-3.262159 1.307496,-4.868894 1.725545,-3.768464 1.753557,-1.053994 0.03518,3.408226 -0.851685,2.211604 -1.323092,2.72442 -1.342662,1.460668 z M -72.540276,50.40452 c -0.353025,-0.571212 -0.433021,-1.24741 -0.177776,-1.502662 0.255252,-0.255313 0.723582,0.212101 1.040727,1.038565 0.658454,1.71589 0.09722,2.017701 -0.86296,0.464097 z m 24.871402,0.0091 c 0,-1.919409 9.942419,-11.196357 14.481017,-13.51176 5.827944,-2.97322 6.214668,-2.424496 0.612555,0.869159 -5.348149,3.144301 -9.609362,6.810883 -12.931327,11.126823 -1.189233,1.545083 -2.162245,2.227185 -2.162245,1.515778 z M -60.328,44.595899 c 0,-1.007405 4.67842,-2.430522 5.450843,-1.658102 0.270193,0.270224 -0.845724,0.957316 -2.479798,1.526946 -1.735039,0.604838 -2.971045,0.6594 -2.971045,0.131156 z m -8.27712,-0.943044 c -0.711832,-1.151767 0.241041,-1.151767 2.921337,0 1.877676,0.806867 1.871003,0.839336 -0.185962,0.90534 -1.173455,0.03764 -2.404369,-0.369762 -2.735375,-0.90534 z m 18.501798,-4.350266 c 3.235953,-1.555855 7.961927,-2.085986 5.355784,-0.600791 -0.803367,0.457828 -2.99437,1.096323 -4.868894,1.418887 l -3.408226,0.586489 z m -41.636426,-1.408693 c -4.412307,-2.828614 -4.408762,-3.384429 0.0073,-1.157397 2.276208,1.147872 4.13856,2.297236 4.13856,2.554131 0,0.833798 -1.404856,0.360511 -4.14594,-1.396734 z m 11.753587,0.224852 c 0.702947,-0.281179 1.542831,-0.246792 1.866412,0.07699 0.323578,0.323599 -0.25157,0.553746 -1.278085,0.511447 -1.134397,-0.04656 -1.36514,-0.277527 -0.588327,-0.588314 z m 27.870805,-2.151808 c 0.36647,-0.59297 1.067061,-1.078095 1.556875,-1.078095 0.489811,0 3.969555,-1.498463 7.73276,-3.329898 3.763208,-1.831434 6.842193,-2.96826 6.842193,-2.526225 0,0.442004 -2.805089,2.116325 -6.233533,3.720687 -7.947843,3.719227 -10.778877,4.638352 -9.898295,3.213531 z m -31.583337,-3.999432 c -2.945681,-1.55622 -5.080085,-2.850129 -4.743121,-2.875416 0.901476,-0.06756 11.559574,4.893999 11.559574,5.381254 0,0.840888 -1.583109,0.258964 -6.816453,-2.505838 z m 15.477379,-0.427671 c -0.235229,-0.235229 -1.729161,-0.663691 -3.319862,-0.952143 -1.590701,-0.288482 -3.041498,-0.972409 -3.223993,-1.519886 -0.182492,-0.547477 -1.093298,-0.995415 -2.024009,-0.995415 -1.865027,0 -9.982678,-7.35623 -11.738947,-10.637834 -0.611024,-1.141726 -1.514323,-1.826566 -2.007329,-1.521864 -1.856799,1.147567 -3.088827,-11.0788653 -1.718458,-17.0536681 0.429936,-1.8745243 1.026113,-5.161028 1.324838,-7.3033416 1.012259,-7.2593993 3.277411,-15.0441533 5.86092,-20.1424633 5.636302,-11.122716 12.071647,-19.295581 15.193391,-19.295581 0.966092,0 1.756201,-0.32865 1.755796,-0.730334 -8.73e-4,-0.861338 6.02568,-0.791378 10.919953,0.126896 1.990946,0.373505 4.212504,1.665922 5.259063,3.059552 0.996596,1.327078 2.277255,2.412872 2.845915,2.412872 0.568656,0 1.60458,1.57813 2.302053,3.506943 0.697475,1.928843 2.197584,4.436414 3.333576,5.572419 1.135996,1.135974 2.180267,2.817812 2.320607,3.737394 0.229659,1.504853 2.68539,6.994197 5.329421,11.912967 1.654125,3.077202 3.994359,18.18297701 3.908228,25.2268978 -0.08867,7.2519142 -0.07063,7.2197792 -9.281923,16.5361952 -6.323592,6.39578 -11.083356,8.440016 -19.713961,8.466764 -3.793682,0.01217 -7.090057,-0.17102 -7.325279,-0.406279 z m 63.3987099,-5.404321 c 0,-0.619597 3.2047976,-4.394238 7.1217622,-8.388131 5.8993654,-6.015245 7.6125163,-7.232986 9.9812339,-7.094801 1.572713,0.0919 3.297671,0.05295 3.83325,-0.08612 1.988395,-0.516316 13.448464,-9.1e-5 12.868731,0.579672 -0.331055,0.331055 -3.142841,0.724218 -6.248435,0.873723 -3.299071,0.158848 -7.347496,1.123072 -9.738032,2.31945 -2.250342,1.126176 -4.476218,2.047614 -4.9464011,2.047614 -0.470183,0 -3.5587357,2.446863 -6.8634977,5.43749 -3.3047317,2.990596 -6.0086113,4.930546 -6.0086113,4.31098 z M -28.582809,24.566789 c -0.346558,-0.903119 -0.411007,-1.861135 -0.143206,-2.128924 0.267789,-0.267789 0.770439,0.251965 1.116998,1.155145 0.346561,0.903119 0.41101,1.861135 0.143236,2.128924 -0.267789,0.267789 -0.770438,-0.251965 -1.117,-1.155145 z M -125.27355,21.6488 c -4.70893,-4.4502 -13.85009,-8.852685 -20.74699,-9.992006 l -5.35578,-0.884739 5.04894,-0.11381 c 2.77692,-0.06269 6.28253,0.354851 7.79023,0.927707 3.94822,1.500106 12.00948,7.04602 15.33915,10.552872 3.93656,4.146015 2.46154,3.797798 -2.07555,-0.489994 z m 27.941953,2.122716 c 0,-0.847979 0.693818,-1.541796 1.541818,-1.541796 0.848,0 1.368363,0.520363 1.156362,1.156362 -0.601868,1.805599 -2.69818,2.105067 -2.69818,0.385434 z M -24.199188,6.8927026 c 0.09783,-2.008419 -0.979913,-8.1607843 -2.395,-13.6719162 -3.16161,-12.3130684 -3.1729,-12.9572234 -0.09747,-5.5602164 3.994313,9.6070892 5.480516,15.654469 4.773467,19.4233584 -0.859557,4.5818426 -2.50679,4.4437486 -2.281001,-0.1911041 z M -100.70683,-3.5754203 c 0.34748,-2.1423135 1.038961,-4.5524162 1.536632,-5.3557838 0.595168,-0.9607546 0.688632,-0.1275042 0.273084,2.4344472 -0.347474,2.1423135 -1.038958,4.5524162 -1.536636,5.3557838 -0.59516,0.96072412 -0.68863,0.1275041 -0.27308,-2.4344472 z m -72.24349,-2.9633308 c -0.31714,-0.8264644 -0.41294,-1.6232894 -0.21289,-1.7706952 0.20005,-0.147284 5.11018,-1.7018007 10.91139,-3.4542367 5.80121,-1.752437 13.4849,-4.397464 17.07488,-5.877851 8.64565,-3.565187 22.46975,-4.848415 26.16289,-2.428574 1.89615,1.24242 2.16125,1.801247 1.15073,2.425774 -0.73635,0.455089 -1.82237,0.388751 -2.47283,-0.150936 -1.32219,-1.097327 -16.56065,-0.165846 -18.86795,1.153411 -1.26272,0.721935 -1.2465,0.839123 0.11966,0.864746 0.86918,0.01521 3.63473,0.938358 6.14567,2.049074 3.71246,1.642187 4.354,2.274109 3.43406,3.382573 -0.96684,1.1649745 -1.54931,1.1469596 -4.00702,-0.123852 -3.94295,-2.039002 -11.71892,-2.847999 -14.26694,-1.484344 -1.13757,0.608825 -3.75311,1.269199 -5.81231,1.467546 -2.0592,0.198408 -6.00389,1.5057969 -8.76598,2.9054519 -5.66325,2.8697872 -9.73821,3.2706798 -10.59337,1.0421869 z M 34.323641,-8.0549553 C 20.920123,-12.703989 16.220575,-13.452246 10.101987,-11.911576 c -2.8976004,0.729604 -4.8372158,0.798133 -5.4430584,0.192321 -1.2279351,-1.227904 4.085611,-4.01486 7.7546884,-4.067322 l 2.726246,-0.03895 -2.647431,-1.436811 c -2.636902,-1.43112 -16.2383409,-2.186894 -18.1453956,-1.008287 -0.5336004,0.329776 -0.7166099,-0.259269 -0.4259065,-1.370685 0.4547852,-1.739169 1.3268346,-1.948897 8.1027531,-1.948897 6.3641014,0 9.064603,0.563544 16.684119,3.481655 8.079899,3.094457 13.77538,5.066815 23.766807,8.230562 1.644774,0.5207891 3.773089,0.9469086 4.729644,0.9469086 1.18582,0 1.551078,0.4900543 1.148086,1.5403052 -0.32509,0.8471572 -0.591084,1.7235582 -0.591084,1.9475577 0,1.1049347 -6.192564,-0.098595 -13.437814,-2.611614 z M -172.75787,-16.654153 c -0.30814,-0.498575 -0.11491,-1.181742 0.42942,-1.518152 0.54431,-0.336379 0.98966,0.07151 0.98966,0.906497 0,1.710473 -0.58432,1.962317 -1.41908,0.611655 z m 219.545546,-0.554171 c 0,-0.803368 0.391307,-1.460669 0.869585,-1.460669 0.478277,0 1.121823,0.657301 1.430116,1.460669 0.341431,0.889729 0.0016,1.460668 -0.869585,1.460668 -0.78657,0 -1.430116,-0.657301 -1.430116,-1.460668 z M -175.7208,-20.616551 c 0.33101,-0.535578 1.34282,-0.967084 2.24848,-0.958867 1.41906,0.01217 1.44476,0.145458 0.18596,0.958867 -1.90702,1.232409 -3.19612,1.232409 -2.43445,0 z m 224.010743,0.06725 c -0.975666,-1.578678 1.144464,-2.058386 2.401734,-0.54346 0.978435,1.178912 0.918791,1.449957 -0.319064,1.449957 -0.837359,0 -1.77456,-0.407922 -2.08267,-0.906497 z m -210.306903,-1.900086 c -0.45532,-0.736725 0.6834,-1.096049 3.52327,-1.111782 2.30782,-0.01217 5.93653,-0.426758 8.06381,-0.919947 5.03989,-1.168504 5.68931,-0.485063 0.84898,0.893442 -6.41915,1.828149 -11.71039,2.312451 -12.43606,1.138287 z M 26.649503,-22.91178 c -2.238961,-0.612172 -4.429964,-1.511518 -4.868894,-1.998529 -0.471675,-0.523345 -0.0016,-0.590505 1.149485,-0.164325 1.071156,0.396693 5.111882,0.966993 8.979367,1.267373 3.867515,0.30035 6.844357,0.84947 6.615214,1.220206 -0.663904,1.0742 -7.435866,0.888999 -11.875172,-0.324786 z m -141.022233,-2.022508 c -2.67789,-1.289801 -4.43069,-2.352772 -3.89511,-2.362144 1.34109,-0.02435 10.94921,4.553481 9.73779,4.638748 -0.53558,0.03773 -3.16479,-0.986803 -5.84268,-2.276604 z m 100.786116,0.834741 c 0,-0.657392 5.0583249,-2.494851 5.5405584,-2.012618 0.2209261,0.220926 -0.9354363,0.867607 -2.5694984,1.437237 -1.634092,0.569661 -2.97106,0.828564 -2.97106,0.575381 z m 68.519037,-5.929948 c 1.323275,-2.58876 3.378252,-7.020732 4.566597,-9.84883 3.311548,-7.880853 3.138855,-5.555712 -0.347761,4.682933 -2.223928,6.530618 -3.63965,9.297854 -4.878906,9.536521 -1.558228,0.300046 -1.487264,-0.169802 0.66007,-4.370624 z m -13.500531,2.59649 c 0.330994,-0.535578 1.561911,-0.967084 2.735376,-0.958867 1.734513,0.01217 1.860343,0.191408 0.67285,0.958867 -1.918466,1.239803 -4.174468,1.239803 -3.408226,0 z m -224.009182,-5.90746 c -0.35303,-0.571212 -0.43302,-1.24741 -0.17777,-1.502662 0.25525,-0.255313 0.72358,0.212101 1.04073,1.038566 0.65845,1.715889 0.0972,2.01773 -0.86296,0.464096 z m 258.443829,-2.076218 c -3.554962,-5.699406 -5.126855,-13.439457 -2.72935,-13.439457 0.567165,0 0.796186,-0.380321 0.508891,-0.845179 -0.287265,-0.464827 0.326702,-2.54628 1.364416,-4.62545 1.382401,-2.769792 1.897104,-3.237997 1.925526,-1.751584 0.0213,1.115798 -0.263529,2.331074 -0.633108,2.700623 -1.183994,1.183994 -0.297307,10.726905 1.350357,14.535111 1.911193,4.416969 0.508708,7.10606 -1.786732,3.425936 z m -278.610279,0.5986 c -0.31274,-0.312735 0.20434,-2.832388 1.14908,-5.599228 0.94473,-2.766841 1.50893,-5.639367 1.25377,-6.383364 -0.25854,-0.753888 -0.0231,-1.080256 0.53209,-0.737212 0.66447,0.410661 0.72444,-0.588527 0.18014,-3.001886 -1.09389,-4.85021 -0.40959,-5.197149 1.45392,-0.737151 2.03884,4.879637 1.91451,7.394634 -0.62389,12.619414 -2.09461,4.311314 -2.79326,4.991256 -3.9451,3.839427 z m 47.95919,-1.960156 c -12.25708,-4.790718 -13.99742,-5.743013 -18.47228,-10.107794 -5.86259,-5.718364 -7.33222,-10.696717 -6.56154,-22.22702 0.64911,-9.711527 2.62513,-16.542738 6.38162,-22.06163 2.80203,-4.116662 13.09143,-12.593067 13.60278,-11.205967 0.16849,0.45707 0.93283,0.59064 1.69852,0.29682 0.76568,-0.29381 1.16842,-0.89623 0.89497,-1.33868 -0.27344,-0.44245 0.0158,-1.12154 0.64295,-1.50909 0.76426,-0.47234 0.87734,-0.27944 0.34303,0.58509 -0.58626,0.94857 -0.34741,1.11716 0.90296,0.63734 0.93503,-0.3588 1.90918,-0.65237 2.16477,-0.65237 0.25559,0 0.19701,-0.43318 -0.13021,-0.96263 -0.35339,-0.57178 0.0835,-0.70228 1.07605,-0.3214 1.22344,0.46948 1.4575,0.29578 0.8739,-0.6485 -0.54449,-0.881 -0.42219,-1.05802 0.38592,-0.55858 1.37093,0.84728 6.90813,-1.19939 6.90813,-2.55339 0,-0.50221 0.40594,-0.66223 0.90208,-0.35559 1.21633,0.75173 11.36442,-3.1104 13.32533,-5.07131 1.02322,-1.02323 3.35602,-1.59019 6.72273,-1.6339 2.83568,-0.0368 4.95269,-0.39559 4.70448,-0.79727 -0.24823,-0.40168 1.21781,-0.68665 3.25784,-0.63327 3.28944,0.0861 3.43367,0.1853 1.27469,0.87672 l -2.43445,0.77964 2.43445,0.10307 c 1.33894,0.0567 3.68959,0.75767 5.22365,1.55774 3.60513,1.8802 4.06928,1.83336 2.47184,-0.24944 -0.71885,-0.93727 -0.11521,-0.64178 1.34143,0.65663 2.95532,2.6343 3.58296,3.93421 0.94431,1.95577 -0.93726,-0.70275 -0.0866,0.36406 1.89036,2.37071 1.97695,2.00664 4.106525,5.26672 4.732379,7.24462 0.625854,1.97789 2.049838,5.129873 3.164407,7.004398 1.732194,2.913278 2.045359,5.140554 2.156424,15.337023 0.07148,6.560835 -0.121722,11.93016 -0.429308,11.931864 -0.307587,0.0017 -0.577646,1.670031 -0.600134,3.70739 -0.04559,4.130617 -4.472329,12.594856 -7.095078,13.566261 -0.89542,0.331663 -2.32983,1.392291 -3.18757,2.357001 -0.85774,0.96468 -1.80868,1.504823 -2.1132,1.200304 -0.30451,-0.304519 -1.2835,0.560227 -2.17552,1.921601 -3.05585,4.663822 -9.2448,7.345001 -19.38053,8.396012 -5.11585,0.530497 -11.17263,1.396186 -13.45952,1.923762 -5.97338,1.378049 -7.3305,1.234447 -14.38265,-1.521926 z m -30.59289,-3.395049 c -2.10931,-5.271704 -1.40131,-5.979702 0.89263,-0.892621 0.97098,2.153238 1.5326,4.147781 1.24805,4.432337 -0.28456,0.284526 -1.24785,-1.308332 -2.14068,-3.539716 z m 195.950462,2.960653 c -6.6110147,-0.770929 -17.0278925,-3.421616 -18.8038521,-4.784845 -0.5355784,-0.411087 -2.0692799,-1.015652 -3.4082259,-1.34345 -1.338946,-0.327798 -3.749049,-1.740843 -5.355784,-3.140102 -1.606735,-1.39929 -4.043346,-3.208815 -5.414691,-4.021251 -1.371343,-0.812405 -3.634362,-3.29402 -5.028932,-5.514692 -2.791547,-4.44524 -6.08239,-14.679929 -5.186331,-16.129795 0.312482,-0.505604 0.184683,-1.156271 -0.284009,-1.44594 -2.105267,-1.30112 1.338207,-19.157517 5.621263,-29.14947 2.980652,-6.95358 12.364354,-14.13602 16.914001,-12.94626 1.2128109,0.31716 2.5310032,-0.12845 3.3588978,-1.13543 0.749475,-0.91161 1.0994268,-1.13268 0.7776537,-0.49127 -0.4238068,0.84482 0.4954709,1.03594 3.3360143,0.69356 3.08386639,-0.37171 3.9210423,-0.15291 3.9210423,1.02481 0,0.8236 0.4640665,1.49744 1.0312623,1.49744 0.5671653,0 0.7603996,-0.4382 0.4294061,-0.97378 -1.1204848,-1.813 1.9898258,-0.98753 3.6691683,0.97378 0.9171475,1.07116 2.2196072,1.94085 2.8943142,1.93265 0.8435969,-0.0104 0.7793579,-0.29786 -0.2057107,-0.92083 -0.7878784,-0.49826 -1.160714,-1.17768 -0.8285641,-1.50982 0.3321194,-0.33214 1.1828978,0.0158 1.8905916,0.77352 0.7076942,0.75759 2.0664802,1.1735 3.0195662,0.92427 1.154689,-0.30196 1.73287,0.094 1.73287,1.18671 0,1.17425 0.531136,1.47128 1.87066,1.04613 1.05372,-0.33443 2.423279,-0.002 3.136024,0.76085 0.695948,0.74502 2.045149,1.15066 2.998235,0.90142 0.953086,-0.24922 1.73287,0.0362 1.73287,0.6342 0,0.59805 0.32865,1.03546 0.730334,0.97204 2.041649,-0.32237 3.205345,0.23565 2.584896,1.23955 -0.382147,0.61833 -0.293959,0.87659 0.195669,0.57392 1.210711,-0.74828 7.200699,1.85023 7.200699,3.12373 0,0.56143 0.814718,1.02079 1.810468,1.02079 3.525384,0 10.694587,7.622042 14.383901,15.292499 3.202302,6.657817 3.558309,8.237773 3.898249,17.300642 0.432906,11.541105 -0.403053,14.339746 -6.276552,21.012383 -4.385748,4.982461 -12.326428,9.273326 -19.775623,10.686036 -5.59226,1.060567 -9.027782,1.04873 -18.56975,-0.0639 z m -110.825952,-7.778972 c 0,-0.51875 0.657297,-0.943196 1.460665,-0.943196 0.803368,0 1.460668,0.172237 1.460668,0.382695 0,0.21058 -0.6573,0.634934 -1.460668,0.943227 -0.803368,0.308261 -1.460665,0.136024 -1.460665,-0.382726 z m 3.408223,-1.916975 c -0.331006,-0.535578 0.107207,-0.973779 0.973779,-0.973779 0.866584,0 1.304784,0.438201 0.973778,0.973779 -0.331005,0.535578 -0.769206,0.973779 -0.973778,0.973779 -0.204585,0 -0.642774,-0.438201 -0.973779,-0.973779 z m 1.947557,-5.842673 c -0.331005,-0.535579 -0.163625,-0.973779 0.371951,-0.973779 0.535578,0 1.244601,0.4382 1.575607,0.973779 0.331006,0.535578 0.163625,0.973779 -0.37195,0.973779 -0.535578,0 -1.244602,-0.438201 -1.575608,-0.973779 z m 40.411824,-4.811442 c 0,-0.503961 0.4382,-1.187127 0.973778,-1.518121 0.535579,-0.331024 0.973779,0.08125 0.973779,0.916296 0,0.834985 -0.4382,1.518151 -0.973779,1.518151 -0.535578,0 -0.973778,-0.412334 -0.973778,-0.916326 z m -148.652134,-2.533894 c -0.31715,-0.826464 -0.35905,-1.720272 -0.0931,-1.986205 0.26593,-0.265963 0.71724,0.410266 1.00291,1.502693 0.60681,2.320424 -0.0674,2.678744 -0.9098,0.483512 z m 280.661766,0.243445 c 0.365685,-0.960359 0.91021,-1.500807 1.210012,-1.201004 0.299741,0.299741 6.08e-4,1.08555 -0.664878,1.746107 -0.961729,0.954577 -1.073561,0.842714 -0.545134,-0.545103 z m -145.642537,-0.68834 c 0,-0.535579 0.464064,-0.973779 1.03125,-0.973779 0.567187,0 0.760424,0.4382 0.429419,0.973779 -0.331006,0.535578 -0.795066,0.973779 -1.031247,0.973779 -0.236172,0 -0.429422,-0.438201 -0.429422,-0.973779 z m 15.009155,-51.003504 c 0.937695,-5.90022 4.642369,-11.53624 9.59245,-14.59325 2.551525,-1.57575 4.86925,-2.63488 5.150499,-2.35363 0.461346,0.46135 -4.478504,5.54358 -9.938713,10.22518 -1.153146,0.98872 -2.59419,3.64545 -3.202315,5.90385 -1.323992,4.91693 -2.335438,5.43332 -1.601921,0.81785 z m -25.720722,-10.00708 c -3.354556,-3.25248 -4.76537,-5.19535 -3.775691,-5.1996 1.671336,-0.007 9.618364,8.01495 9.618364,9.70925 0,1.24691 0.463595,1.60473 -5.842673,-4.50965 z m 21.679647,3.55763 c 1.463894,-3.77244 3.226506,-6.80196 3.961469,-6.80886 0.445367,-0.004 -0.178475,1.63566 -1.386326,3.64408 -2.523576,4.19623 -3.387324,5.25775 -2.575143,3.16478 z m -123.819129,-1.84026 c -1.13017,-1.13017 -2.05486,-1.7614 -2.05486,-1.40273 0,0.35867 -1.74661,-1.28459 -3.88137,-3.65167 -2.13475,-2.36709 -3.88755,-5.25092 -3.89511,-6.40851 -0.0128,-1.98003 -4.75303,-13.83718 -8.11216,-20.2922 -2.99037,-5.74643 -4.56071,-10.07205 -4.56071,-12.56285 0,-1.3919 -0.4382,-2.53073 -0.97378,-2.53073 -0.53558,0 -0.97378,-0.8078 -0.97378,-1.79511 0,-0.98731 -0.88853,-4.37767 -1.97451,-7.53413 -1.08599,-3.15646 -1.85197,-6.37534 -1.7022,-7.15307 0.14978,-0.77772 1.73953,2.94129 3.53278,8.26447 1.79324,5.32318 4.31203,11.99205 5.5973,14.81971 1.28528,2.82766 2.33686,5.57236 2.33686,6.09933 0,0.52697 0.4158,1.71904 0.924,2.64903 0.5082,0.93 2.12546,4.53921 3.5939,8.02047 5.20333,12.33557 11.09054,18.15982 17.87782,17.68664 1.87518,-0.13073 5.60042,-0.63776 8.27831,-1.12673 2.6779,-0.48898 7.90702,-1.15223 11.62027,-1.4739 3.71325,-0.32167 7.01751,-0.74934 7.34279,-0.95038 0.32528,-0.20102 4.07927,-0.64038 8.3422,-0.97632 4.26293,-0.33595 10.05134,-0.79765 12.86312,-1.02599 2.81179,-0.22835 5.11234,-0.038 5.11234,0.42297 0,2.06808 -3.16765,2.88288 -13.14601,3.38147 -5.89137,0.29438 -12.24238,0.99171 -14.11337,1.54963 -1.87099,0.55792 -5.15749,1.01995 -7.30334,1.02674 -2.38623,0.008 -6.14128,1.14809 -9.66829,2.93662 -8.02232,4.06807 -12.42836,4.66108 -15.0622,2.02724 z m 110.982912,-1.43946 c -2.356928,-3.8136 -2.610016,-5.23286 -0.641863,-3.59944 1.277787,1.06047 3.837018,6.87916 3.025656,6.87916 -0.196247,0 -1.268953,-1.47588 -2.383793,-3.27972 z m 116.774044,1.86624 c -10.28627,-5.85106 -16.703746,-7.32969 -31.286785,-7.20868 -4.761687,0.0395 -9.3077129,-0.43167 -10.5429818,-1.09277 -1.1944311,-0.63923 -3.1806661,-0.909 -4.4138962,-0.59948 -1.8923262,0.47494 -3.4190593,-0.73926 -3.4190593,-2.71912 0,-0.11831 2.51965279,0.0997 5.5992285,0.48437 3.0795756,0.3847 10.8576348,0.74119 17.2845748,0.79218 6.958807,0.0552 13.502296,0.64418 16.177328,1.45609 6.207505,1.88407 14.721132,2.84308 18.047287,2.03292 3.687244,-0.89811 10.655149,-9.11904 12.171445,-14.36018 0.660465,-2.28292 1.969376,-5.1641 2.908647,-6.40262 0.939301,-1.23851 2.208043,-3.86772 2.819394,-5.84267 0.611381,-1.97496 2.100076,-5.78183 3.30817,-8.45972 1.208094,-2.6779 3.431262,-8.04585 4.940345,-11.92879 1.509114,-3.88294 3.166425,-7.0599 3.682984,-7.0599 0.516529,0 0.409596,0.63811 -0.237663,1.41801 -0.676776,0.8155 -0.837237,1.95334 -0.377582,2.67789 1.256296,1.98032 1.067809,2.95752 -1.31941,6.83976 -1.228422,1.99778 -2.233514,4.02571 -2.233514,4.50653 0,0.48081 -0.740224,2.57097 -1.644956,4.6448 -0.904701,2.07383 -1.702044,3.98969 -1.771821,4.25748 -1.536471,5.89557 -2.857706,9.53704 -3.886564,10.71157 -0.703708,0.80337 -1.802861,3.42523 -2.442542,5.82637 -1.639813,6.15524 -5.175604,12.73118 -8.421666,15.66284 -6.447085,5.82265 -10.364111,6.96651 -14.940933,4.36312 z m -85.692541,-2.29107 c 0,-0.46846 1.123419,-1.3636 2.496483,-1.98921 1.425972,-0.64972 2.237845,-0.71899 1.893328,-0.16155 -0.883272,1.42917 -4.389811,3.14717 -4.389811,2.15076 z m -179.457465,-5.05946 c -0.28011,-1.07116 -0.11211,-1.94756 0.37332,-1.94756 0.48544,0 0.88261,0.8764 0.88261,1.94756 0,1.07115 -0.16801,1.94755 -0.37331,1.94755 -0.20532,0 -0.6025,-0.8764 -0.88262,-1.94755 z m 186.818135,0.51786 c 1.039628,-0.78634 2.54753,-1.42811 3.350898,-1.42616 0.847133,0.002 0.438106,0.58808 -0.973779,1.39519 -3.200409,1.82952 -4.782261,1.85012 -2.377119,0.031 z m -21.480463,-1.49164 c 0.331006,-0.53558 1.34282,-0.96707 2.248474,-0.95887 1.419063,0.0128 1.444765,0.14537 0.185961,0.95887 -1.907021,1.23241 -3.196119,1.23241 -2.434447,0 z m 145.579941,0.11493 c 0,-0.53557 0.4382,-1.2446 0.973779,-1.5756 0.535578,-0.33101 0.973779,-0.16363 0.973779,0.37195 0,0.53557 -0.438201,1.2446 -0.973779,1.5756 -0.535579,0.33101 -0.973779,0.16363 -0.973779,-0.37195 z m -126.670543,-3.42762 c 1.192769,-1.4372 5.825002,-2.95154 6.614253,-2.16229 0.559667,0.55967 -4.998075,3.52742 -6.605839,3.52742 -0.868638,0 -0.87065,-0.3262 -0.0085,-1.36513 z m -61.512224,-0.2799 c -0.937262,-0.24493 -1.704113,-0.89828 -1.704113,-1.45189 0,-0.55361 0.693142,-0.74058 1.540312,-0.41549 0.847172,0.32509 1.942673,0.59107 2.434447,0.59107 0.491776,0 0.894136,0.4382 0.894136,0.97378 0,1.01261 -0.327704,1.04394 -3.164782,0.30254 z m 32.378148,-0.78942 c 0,-0.80336 0.4382,-1.46067 0.973779,-1.46067 0.535578,0 0.973778,0.65731 0.973778,1.46067 0,0.80337 -0.4382,1.46067 -0.973778,1.46067 -0.535579,0 -0.973779,-0.6573 -0.973779,-1.46067 z m 3.971992,-0.0812 c 0.04671,-1.13439 0.277466,-1.36514 0.588327,-0.58832 0.2813,0.70294 0.246701,1.54283 -0.07687,1.86641 -0.323581,0.32358 -0.55373,-0.25157 -0.51145,-1.27809 z m -12.474022,-0.10678 c 0.947453,-0.24688 2.262055,-0.23066 2.921336,0.0361 0.659279,0.26676 -0.11591,0.46875 -1.722648,0.44891 -1.606735,-0.0198 -2.146145,-0.23809 -1.198688,-0.48499 z m 15.318482,0.30146 c 0,-0.20534 1.095501,-0.58278 2.434447,-0.83874 1.338946,-0.25595 2.434447,-0.0879 2.434447,0.37337 0,0.46131 -1.095501,0.83874 -2.434447,0.83874 -1.338946,0 -2.434447,-0.16801 -2.434447,-0.37337 z m -39.924934,-3.69211 c -1.874524,-0.53267 -4.915642,-2.1364 -6.758042,-3.56384 -1.84239,-1.42745 -3.8016,-2.90018 -4.3538,-3.27274 -0.55219,-0.37257 -0.7402,-0.94118 -0.41778,-1.26359 0.32241,-0.32242 1.19737,-0.0177 1.94436,0.67738 2.23054,2.07523 9.918927,5.65121 12.143921,5.6483 1.139473,-10e-4 2.61728,0.6546 3.284014,1.45797 1.005689,1.21178 0.901561,1.4457 -0.611098,1.37284 -1.002843,-0.0483 -3.357051,-0.52364 -5.231575,-1.05632 z m 61.69985,0.38898 c 0.348323,-0.5636 3.807721,-2.25315 7.687555,-3.75455 3.87983,-1.5014 7.273337,-2.98294 7.541126,-3.2923 1.175652,-1.35816 13.6316868,-8.70784 13.6208535,-8.03696 -0.012172,0.68325 -6.0416285,5.08863 -8.2206415,6.00524 -0.511173,0.21502 -1.735152,1.14163 -2.720008,2.05914 -4.472566,4.16685 -19.877602,10.20488 -17.908885,7.01943 z m 18.636907,-1.19239 c -0.330994,-0.53558 -0.137851,-0.97378 0.429406,-0.97378 0.567196,0 1.031262,0.4382 1.031262,0.97378 0,0.53558 -0.193234,0.97378 -0.429406,0.97378 -0.236141,0 -0.700269,-0.4382 -1.031262,-0.97378 z m -141.684829,-2.92134 c 0,-0.53558 0.46407,-0.97378 1.03125,-0.97378 0.56719,0 0.76043,0.4382 0.42942,0.97378 -0.331,0.53558 -0.79506,0.97378 -1.03125,0.97378 -0.23617,0 -0.42942,-0.4382 -0.42942,-0.97378 z m 189.058319,-0.64916 c -0.723518,-0.78459 -1.114612,-1.62738 -0.869098,-1.87288 0.245575,-0.24548 1.009444,0.23213 1.697662,1.06137 1.625389,1.95849 0.891738,2.67704 -0.828564,0.81151 z m -187.110759,-2.27218 c 0,-0.53557 0.4382,-0.97377 0.97378,-0.97377 0.53558,0 0.97378,0.4382 0.97378,0.97377 0,0.53558 -0.4382,0.97378 -0.97378,0.97378 -0.53558,0 -0.97378,-0.4382 -0.97378,-0.97378 z m 182.578123,-1.95352 c -0.972349,-1.07444 -1.473936,-2.2475 -1.114612,-2.60681 0.645646,-0.64565 3.46361,2.41742 3.523497,3.83 0.04899,1.15718 -0.512908,0.87181 -2.408885,-1.22319 z m -65.17516,-0.27948 c 0.365684,-0.96036 0.910182,-1.5008 1.209996,-1.20099 0.299802,0.2998 6.18e-4,1.08556 -0.664881,1.74611 -0.961719,0.95456 -1.07357,0.84271 -0.545115,-0.54512 z M -161.601,-145.20278 c 0,-0.56719 0.4382,-1.03125 0.97378,-1.03125 0.53558,0 0.97378,-0.6573 0.97378,-1.46067 0,-0.80337 0.45362,-1.46067 1.00804,-1.46067 0.69307,0 0.69143,0.59159 -0.005,1.89333 -1.22153,2.28234 -2.95042,3.48905 -2.95042,2.05926 z m 49.23163,-0.62398 c -1.03879,-0.75957 -1.4763,-1.37434 -0.97225,-1.36614 1.34601,0.0219 3.8571,1.75105 3.32117,2.28697 -0.25312,0.25312 -1.31014,-0.16125 -2.34892,-0.92083 z m 147.762068,0.3466 c -2.208743,-2.85195 -2.344768,-4.00851 -0.234924,-1.99814 1.249024,1.19017 2.029051,2.40581 1.733448,2.70142 -0.295481,0.29561 -0.969884,-0.021 -1.498402,-0.70328 z m -115.683165,-3.67521 c -0.830873,-1.60673 -1.29158,-2.92133 -1.023791,-2.92133 0.267789,0 1.166697,1.3146 1.99757,2.92133 0.830877,1.60674 1.291584,2.92134 1.023795,2.92134 -0.267789,0 -1.166697,-1.3146 -1.997574,-2.92134 z m 33.617026,2.62954 c -0.02921,-1.05253 2.831968,-6.52465 3.411579,-6.52465 0.254035,0 0.452138,0.54775 0.440231,1.21722 -0.02374,1.33747 -3.81687,6.56397 -3.85181,5.30743 z m -119.796459,-2.62954 c 1.07304,-2.00498 2.11766,-2.42664 3.23749,-1.30682 0.88679,0.8868 -1.22595,3.25438 -2.90409,3.25438 -1.07395,0 -1.14707,-0.42719 -0.3334,-1.94756 z m 130.486372,1.03125 c 0,-0.50397 0.433183,-1.18403 0.962626,-1.51124 0.551996,-0.34116 0.715247,0.0497 0.382707,0.91631 -0.647362,1.68699 -1.345333,1.99565 -1.345333,0.59493 z m 75.552551,-0.36201 c -1.012213,-0.74016 -1.424426,-1.60281 -0.916052,-1.91701 1.284475,-0.79385 3.583932,0.78033 3.129816,2.14264 -0.26718,0.80162 -0.896637,0.73747 -2.213764,-0.22565 z m -167.064323,-4.52926 c -1.17167,-0.74093 -0.99175,-1.07705 0.97378,-1.81914 2.81882,-1.06425 3.35172,-0.80316 2.56187,1.25516 -0.65998,1.71986 -1.49673,1.85334 -3.53565,0.56398 z m 128.15744455,-0.24375 c 0.26018154,-0.42081 0.009129,-0.76511 -0.55837089,-0.76511 -0.56719576,0 -1.03126225,-0.42408 -1.03126225,-0.9424 0,-1.15934 4.15112799,0.24981 4.58689409,1.55707 0.1679768,0.50355 -0.5442511,0.91556 -1.582482,0.91556 -1.0382004,0 -1.6748692,-0.3443 -1.41477895,-0.76512 z M -223.92285,-157.97685 c 0,-0.56718 0.4382,-0.76042 0.97378,-0.42942 0.53558,0.33101 0.97378,0.79507 0.97378,1.03125 0,0.23618 -0.4382,0.42942 -0.97378,0.42942 -0.53558,0 -0.97378,-0.46406 -0.97378,-1.03125 z m 92.0221,-0.91631 c 0.33101,-0.53557 1.01417,-0.97378 1.51814,-0.97378 0.50397,0 0.91631,0.43821 0.91631,0.97378 0,0.53558 -0.68316,0.97378 -1.51814,0.97378 -0.83497,0 -1.24731,-0.4382 -0.91631,-0.97378 z m 137.7897135,-0.0575 c 0,-0.56719 0.4382005,-0.76043 0.9737789,-0.42942 0.5355783,0.33101 0.9737788,0.79507 0.9737788,1.03125 0,0.23617 -0.4382005,0.42942 -0.9737788,0.42942 -0.5355784,0 -0.9737789,-0.46406 -0.9737789,-1.03125 z m -70.0095615,-3.51465 c -1.053364,-2.31188 -1.01692,-2.45976 0.330583,-1.34143 1.237055,1.02667 1.79186,1.02667 3.028918,0 1.347503,-1.11833 1.383947,-0.97045 0.330583,1.34143 -0.651133,1.42908 -1.481401,2.59832 -1.845043,2.59832 -0.36364,0 -1.193911,-1.16924 -1.845041,-2.59832 z m -13.313449,0.70377 c -0.499875,-0.48858 -3.209414,-2.03804 -6.021201,-3.44324 -6.371995,-3.18444 -6.648025,-3.96365 -0.486889,-1.37444 5.108355,2.14677 8.639731,4.48322 7.897672,5.22528 -0.264381,0.26441 -0.889708,0.081 -1.389582,-0.4076 z m 28.791394,0.0578 c 0,-0.48808 3.943804,-2.92431 8.76401,-5.41384 4.820205,-2.48954 8.764009,-4.14251 8.764009,-3.67327 0,0.46924 -2.300552,1.90155 -5.112339,3.18291 -2.811786,1.28136 -6.755591,3.33366 -8.764009,4.56067 -2.008419,1.22702 -3.651671,1.8316 -3.651671,1.34353 z m -20.824252,-2.51099 c -1.610704,-2.45825 -2.243855,-5.59291 -0.783834,-3.88069 0.979116,1.14825 3.194104,6.28088 2.710516,6.28088 -0.194725,0 -1.061717,-1.08008 -1.926682,-2.40019 z m 13.192284,-0.0343 c 1.488446,-3.66811 2.770243,-5.23892 2.741422,-3.35954 -0.01187,0.77659 -0.900319,2.50748 -1.974248,3.84643 l -1.952594,2.43444 z m -82.929469,-1.46067 c 0,-0.53558 0.4382,-0.97378 0.97378,-0.97378 0.53558,0 0.97378,0.4382 0.97378,0.97378 0,0.53558 -0.4382,0.97378 -0.97378,0.97378 -0.53558,0 -0.97378,-0.4382 -0.97378,-0.97378 z m 38.56785,-2.95024 c -1.01419,-1.02339 -2.1713,-1.65841 -2.57138,-1.41115 -0.40007,0.24725 -1.44273,-0.64218 -2.31703,-1.97653 -0.8743,-1.33435 -2.1638,-2.42609 -2.86555,-2.42609 -0.70176,0 -1.27593,-0.6573 -1.27593,-1.46066 0,-1.89721 0.15255,-1.86301 3.25816,0.73033 5.91764,4.94154 9.506099,8.46602 8.589484,8.43634 -0.535579,-0.0174 -1.803566,-0.86884 -2.817754,-1.89224 z m 73.46504,1.24613 c 0.06384,-0.96495 11.981137,-9.96173 12.503509,-9.43934 0.222448,0.22254 -0.648232,1.24119 -1.935051,2.26367 -2.097787,1.66688 -5.012417,4.07034 -8.384674,6.91418 -1.391128,1.17314 -2.250908,1.27609 -2.183784,0.26149 z m 85.644222,-4.13856 c -1.181163,-0.76332 -1.041395,-0.94681 0.730335,-0.95887 1.205051,-0.008 2.191002,0.42329 2.191002,0.95887 0,1.22007 -1.033423,1.22007 -2.921337,0 z m -243.688162,-0.64491 c 0.66947,-0.27014 1.76497,-0.27014 2.43445,0 0.66947,0.27013 0.12172,0.49115 -1.21723,0.49115 -1.33894,0 -1.88669,-0.22101 -1.21722,-0.49115 z m 239.306158,-0.32887 c -1.587656,-0.68224 -1.643252,-0.84954 -0.300959,-0.90533 0.905645,-0.0377 1.917462,0.36975 2.248455,0.90533 0.692022,1.11973 0.658184,1.11973 -1.947557,0 z m -234.376398,-0.6652 c 0.70294,-0.2813 1.54283,-0.2467 1.86641,0.0769 0.32357,0.32358 -0.25157,0.55373 -1.27809,0.51144 -1.1344,-0.0467 -1.36514,-0.27746 -0.58832,-0.58831 z m 60.22271,-3.9027 c -2.0583,-1.31545 -3.5169,-2.6172 -3.24133,-2.89277 0.27558,-0.27558 1.95966,0.522 3.74239,1.7724 1.78273,1.25041 3.42391,2.38449 3.64707,2.5202 0.22315,0.13572 0.22315,0.4144 0,0.61931 -0.22315,0.20492 -2.08982,-0.70369 -4.14813,-2.01914 z m 113.8767451,-0.11098 c 5.91147676,-4.25149 7.08436298,-4.55179 2.9052084,-0.74382 -2.0976719,1.91133 -4.4639545,3.47515 -5.2584668,3.47515 -0.7944818,0 0.2644418,-1.2291 2.3532584,-2.73133 z m 67.5802839,-1.19436 c 0,-0.51876 0.657301,-0.94321 1.460668,-0.94321 0.803368,0 1.460669,0.17221 1.460669,0.3827 0,0.21049 -0.657301,0.63494 -1.460669,0.94322 -0.803367,0.30828 -1.460668,0.13606 -1.460668,-0.38271 z m -34.415293,-5.49596 c -0.352416,-0.3524 -0.640746,-1.22501 -0.640746,-1.93911 0,-1.45064 2.51028,-1.77752 3.340031,-0.43493 0.662717,1.07228 -1.818684,3.25466 -2.699285,2.37404 z m -180.302946,-1.28992 c -0.33101,-0.53558 -0.16363,-0.97378 0.37195,-0.97378 0.53558,0 1.2446,0.4382 1.57561,0.97378 0.331,0.53558 0.16362,0.97378 -0.37195,0.97378 -0.53558,0 -1.24461,-0.4382 -1.57561,-0.97378 z m 53.38898,-7.09396 c 0.566885,-1.81116 1.603634,-3.29302 2.303891,-3.29302 1.979984,0 1.504454,2.04 -1.0307,4.42165 l -2.303891,2.16439 z m 73.855297,0.94124 c -2.190236,-2.3314 -2.782044,-4.55885 -1.211235,-4.55885 0.921675,0 4.239617,5.89408 3.649906,6.4838 -0.17875,0.17872 -1.276138,-0.68749 -2.438671,-1.92495 z m -132.600067,-0.55955 c 0,-0.47828 0.69315,-1.13558 1.54032,-1.46067 2.38213,-0.91411 2.69688,-0.71592 1.38102,0.8696 -1.34347,1.61878 -2.92134,1.93803 -2.92134,0.59107 z m 188.723644,0.20872 c -0.907592,-0.23921 -1.427042,-1.01636 -1.154354,-1.72699 0.583051,-1.51936 3.711802,-0.9129 5.326267,1.03241 0.895267,1.07875 0.7527,1.33238 -0.698443,1.24248 -1.00284,-0.0621 -2.565908,-0.30868 -3.47347,-0.5479 z m -137.113364,-2.80482 c 0,-0.83498 0.43821,-1.24732 0.97378,-0.91631 0.53558,0.331 0.97378,1.01417 0.97378,1.51814 0,0.50397 -0.4382,0.91631 -0.97378,0.91631 -0.53557,0 -0.97378,-0.68317 -0.97378,-1.51814 z m 88.1896,-0.71486 c 0.365685,-0.96037 0.910185,-1.50081 1.21,-1.201 0.299741,0.2998 6.08e-4,1.08556 -0.664884,1.74611 -0.96172,0.95457 -1.07357,0.84271 -0.545116,-0.54511 z m 53.039319,-3.86633 c -0.01826,-0.40896 0.390151,-1.50446 0.904884,-2.43445 0.514703,-0.93 2.091281,-4.3201 3.503504,-7.53357 1.412193,-3.21348 3.254613,-7.37638 4.094254,-9.2509 0.83961,-1.87453 1.379996,-3.40823 1.200821,-3.40823 -0.179236,0 0.253487,-1.08218 0.961272,-2.40484 0.707876,-1.32266 1.834082,-5.92377 2.502673,-10.22468 1.185058,-7.62337 1.218014,-7.68881 1.311954,-2.60461 0.09251,5.00204 -1.981914,15.12248 -3.790678,18.49446 -0.474565,0.88471 -2.394857,4.89507 -4.267282,8.91191 -3.257351,6.98791 -6.355702,12.03242 -6.421402,10.45491 z m -198.374779,-9.1096 c -4.46652,-9.68274 -9.34552,-22.81862 -8.71106,-23.45308 0.22841,-0.22841 1.18437,1.91362 2.12431,4.76011 0.93995,2.84648 3.84996,9.72536 6.46668,15.28639 2.61672,5.56104 4.61186,10.54844 4.43364,11.08311 -0.17824,0.53467 -2.11933,-2.91977 -4.31357,-7.67653 z m 62.98854,-18.90454 c -1.29837,-0.83784 -1.29837,-1.0473 0,-1.88515 1.497737,-0.96649 2.428733,0.0167 1.78526,1.88515 -0.209241,0.60758 -0.84372,0.60758 -1.78526,0 z m 75.95475,-0.91201 c 0,-1.30393 0.467134,-1.73774 1.460668,-1.35649 0.803368,0.30829 1.460668,1.17093 1.460668,1.917 0,0.74607 -0.6573,1.35648 -1.460668,1.35648 -0.803718,0 -1.460668,-0.86218 -1.460668,-1.91699 z m -52.966764,-5.46599 c -0.783432,-2.04159 -0.754173,-3.81628 0.04966,-3.01244 0.352408,0.35241 1.239399,0.14391 1.97109,-0.46336 1.952643,-1.62054 2.497113,-0.47126 1.16344,2.45583 -1.331292,2.92187 -2.33143,3.24224 -3.184193,1.01997 z m 28.931095,-0.95738 c -0.949093,-2.04548 -0.894717,-2.58116 0.308901,-3.04304 0.80342,-0.3083 1.97906,1.3e-4 2.612533,0.68539 0.895071,0.96825 0.871782,1.0874 -0.104498,0.5346 -0.944313,-0.5347 -1.099448,-0.0866 -0.624768,1.8047 0.812567,3.23753 -0.692649,3.25013 -2.19218,0.0183 z m -25.643188,-16.45335 c 2.579991,-6.01888 6.189609,-12.19339 7.133502,-12.20238 0.433292,-0.004 0.631727,0.32115 0.44097,0.72283 -0.190769,0.40169 -0.964571,2.04494 -1.719584,3.65167 -0.755013,1.60674 -2.048949,3.7342 -2.875417,4.72769 -0.826467,0.99349 -1.445614,2.08899 -1.375882,2.43444 0.26505,1.31308 -1.581594,5.01011 -2.502524,5.01011 -0.529803,0 -0.125283,-1.95496 0.898935,-4.34436 z m 24.555362,3.17582 c -0.642694,-0.64269 -1.168535,-1.56242 -1.168535,-2.04383 0,-0.9929 -2.415121,-6.70526 -4.469204,-10.57078 -0.755406,-1.42158 -1.359532,-2.95529 -1.3425,-3.40823 0.07799,-2.07388 6.40434,8.63198 8.756171,14.81777 0.966643,2.54246 0.129513,3.11051 -1.775932,1.20507 z m -33.696452,-1.60123 c -0.6793,-1.09913 4.222299,-6.96802 5.819576,-6.96802 0.76455,0 1.390091,0.25562 1.390091,0.56808 0,1.11179 -6.765962,7.11787 -7.209667,6.39994 z m 39.523545,-2.67988 c -3.654167,-4.12744 -3.69638,-4.26163 -1.129462,-3.59037 1.966208,0.51418 5.819181,4.65241 5.819181,6.25001 0,1.70104 -1.665104,0.75672 -4.689719,-2.65964 z m -45.459893,-0.39302 c 0.969384,-1.07116 1.981615,-1.94756 2.249405,-1.94756 0.267789,0 -0.306242,0.8764 -1.275626,1.94756 -0.969382,1.07115 -1.981616,1.94755 -2.249405,1.94755 -0.267789,0 0.306244,-0.8764 1.275626,-1.94755 z m 54.531617,0.19773 c -1.071157,-0.92676 -2.585782,-2.55543 -3.365834,-3.61927 -0.780051,-1.06384 0.205894,-0.42414 2.191003,1.42155 3.244412,3.01656 4.101027,4.01298 3.365833,3.91514 -0.133895,-0.018 -1.119846,-0.79066 -2.191002,-1.71742 z m 38.4642649,-4.57975 c 0,-0.89263 0.4710655,-1.46594 1.0468123,-1.27402 0.5757467,0.19192 1.0468123,0.76522 1.0468123,1.27402 0,0.5088 -0.4710656,1.08212 -1.0468123,1.27403 -0.5757468,0.19193 -1.0468123,-0.3814 -1.0468123,-1.27403 z m -131.9470369,-0.48689 c 0.33101,-0.53557 0.79507,-0.97377 1.03125,-0.97377 0.23617,0 0.42942,0.4382 0.42942,0.97377 0,0.53558 -0.46406,0.97378 -1.03125,0.97378 -0.56719,0 -0.76043,-0.4382 -0.42942,-0.97378 z m 141.684826,-6.21598 c 0,-0.74091 0.868793,-1.57429 1.930668,-1.85198 1.642248,-0.42945 1.782594,-0.22823 0.939514,1.3471 -1.15408,2.15643 -2.870182,2.45829 -2.870182,0.50488 z m -152.883286,-0.60046 c 0,-0.53558 0.4382,-0.97378 0.97378,-0.97378 0.53558,0 0.97378,0.4382 0.97378,0.97378 0,0.53558 -0.4382,0.97378 -0.97378,0.97378 -0.53558,0 -0.97378,-0.4382 -0.97378,-0.97378 z m 67.413905,-7.97282 c 0.21201,-0.63599 0.906113,-1.32991 1.542478,-1.54203 0.711589,-0.23721 0.929216,0.20799 0.56529,1.15636 -0.679235,1.77005 -2.691993,2.13834 -2.107768,0.38567 z m 19.962467,0.56804 c -0.390528,-0.39052 -0.71005,-1.38195 -0.71005,-2.20317 0,-1.09608 0.288087,-1.20505 1.083329,-0.4098 0.595831,0.59583 0.915353,1.58726 0.71005,2.20317 -0.205316,0.61592 -0.692805,0.80033 -1.083329,0.4098 z m 87.903828,-2.33301 c 0,-0.53558 0.876401,-0.97378 1.947557,-0.97378 1.071157,0 1.947558,0.4382 1.947558,0.97378 0,0.53558 -0.876401,0.97378 -1.947558,0.97378 -1.071156,0 -1.947557,-0.4382 -1.947557,-0.97378 z m -3.784927,-5.223 c -1.307693,-1.5757 -0.165542,-2.83134 1.589025,-1.74694 0.625561,0.38662 0.781914,1.23771 0.354425,1.9294 -0.605021,0.97896 -1.011178,0.94083 -1.94345,-0.18247 z m -189.437293,-0.50175 c -0.30172,-0.4882 0.1062,-1.13889 0.90649,-1.44599 0.80029,-0.3071 1.45507,-0.15976 1.45507,0.32738 0,1.32001 -1.7305,2.1397 -2.36156,1.11861 z m 3.75494,-6.06947 c -0.36801,-0.59545 -0.0652,-1.46515 0.67287,-1.93264 2.09659,-1.32796 2.66264,-1.04166 2.11102,1.06773 -0.56377,2.15588 -1.75693,2.52657 -2.78389,0.86491 z m 181.394896,-0.86491 c -0.587675,-2.24732 -0.325485,-2.34128 2.425288,-0.8691 1.61626,0.86499 1.748146,1.24751 0.666308,1.93264 -2.00212,1.26797 -2.52933,1.08661 -3.091596,-1.06354 z m -95.583663,0.0832 c -0.313532,-0.50731 -0.154983,-1.1789 0.352317,-1.49244 0.507308,-0.31353 1.178902,-0.15498 1.492437,0.35232 0.313533,0.50731 0.154983,1.1789 -0.352316,1.49244 -0.507308,0.31353 -1.178905,0.15498 -1.492438,-0.35232 z m 11.147054,-0.62752 c 0,-0.83498 0.445349,-1.2429 0.989664,-0.9065 0.544315,0.33641 0.737555,1.01957 0.429421,1.51814 -0.834763,1.35068 -1.419085,1.09882 -1.419085,-0.61164 z M 13.196626,65.085576 c -1.200426,-2.662099 -2.112522,-3.64668 -2.769579,-2.989654 -0.657027,0.657027 -0.60353,1.805204 0.162499,3.486342 0.628179,1.378688 1.142121,3.456367 1.142121,4.617111 0,1.972024 0.106812,2.003703 1.627459,0.482934 1.520738,-1.520738 1.510087,-1.88767 -0.1625,-5.596733 z M -135.6115,51.686531 c -0.24494,-0.937263 -0.44533,-0.170412 -0.44533,1.704113 0,1.874524 0.20038,2.641375 0.44533,1.704113 0.24493,-0.937263 0.24493,-2.470964 0,-3.408226 z M -225.11214,-191.2713 c 0.028,-6.81518 0.53837,-10.2747 2.09685,-14.21423 1.13289,-2.86372 2.76316,-8.77943 3.62282,-13.14601 0.88923,-4.51679 2.34853,-8.80586 3.38522,-9.94957 1.0022,-1.10567 1.82219,-2.5221 1.82219,-3.14762 0,-1.46821 7.39086,-13.6543 10.01247,-16.50863 1.4746,-1.60551 1.64173,-2.19261 0.6254,-2.197 -0.76284,-0.003 -2.67276,-0.67651 -4.24428,-1.49601 -3.71967,-1.9397 -5.03708,-1.33032 -5.789,2.67773 -0.68368,3.64435 -10.67858,19.66463 -15.84631,25.39919 -1.82945,2.03011 -3.0971,4.06191 -2.81701,4.51511 0.28009,0.4532 -0.25275,1.42141 -1.18412,2.15156 -1.53241,1.20136 -1.56634,1.16556 -0.35694,-0.37655 0.82894,-1.05698 0.9344,-1.70411 0.27771,-1.70411 -0.58231,0 -1.58116,0.98595 -2.21965,2.191 -1.49097,2.81394 -4.66988,5.59923 -6.39052,5.59923 -2.93473,0 -2.19222,3.11831 2.36095,9.91522 10.93274,16.32028 13.01847,19.09595 14.49001,19.28323 0.0644,0.008 0.13383,-4.03844 0.15422,-8.99254 z m 334.44082,-6.47373 c -1.45948,-0.7647 -2.79684,-1.29002 -2.97191,-1.16738 -0.44462,0.31145 -4.92129,-4.85986 -6.21167,-7.1755 -0.8027,-1.44047 -0.275399,-1.24825 2.13139,0.77688 2.92197,2.45868 9.87932,6.49294 11.19748,6.49294 0.30065,0 2.30436,-2.71908 4.4523,-6.0424 l 3.9054,-6.04239 -2.70939,-1.38282 c -1.49018,-0.76056 -3.47627,-2.0532 -4.41353,-2.87254 -1.53203,-1.33927 -1.70411,-1.33516 -1.70411,0.0407 0,0.84174 0.54775,1.75146 1.21722,2.0216 0.66948,0.27013 0.75544,0.52576 0.19111,0.56804 -0.5644,0.0423 -2.5363,-1.55703 -4.38201,-3.55403 -1.84567,-1.99701 -2.44488,-2.87341 -1.33155,-1.94756 3.65627,3.04056 3.79966,1.75921 0.22032,-1.96832 -3.64248,-3.79322 -15.168799,-19.90658 -16.148938,-22.57561 -0.308079,-0.83898 -0.842014,-1.74452 -1.186549,-2.01231 -0.344505,-0.26779 -1.306172,-2.22095 -2.13708,-4.34035 -1.555124,-3.96684 -3.70815,-5.75205 -3.70815,-3.0747 0,1.00949 -0.538012,1.3048 -1.620398,0.88945 -1.030806,-0.39556 -1.382918,-0.23755 -0.967723,0.43428 0.358989,0.58085 0.102247,1.25051 -0.570604,1.48813 -1.217193,0.42989 -0.733347,1.82669 3.730121,10.76823 0.7569,1.51624 1.376162,3.45872 1.376162,4.31661 0,0.8579 1.780524,6.79173 3.956738,13.1863 2.897722,8.5147 5.333386,13.61446 9.100301,19.05408 2.82895,4.08517 5.46417,8.30399 5.85603,9.37514 0.66999,1.83136 0.85184,1.77412 3.04765,-0.95929 l 2.33516,-2.90686 z M -243.00418,-216.833 c 1.97305,-1.33894 3.93639,-2.43444 4.36299,-2.43444 1.65378,0 9.68243,-8.55849 13.24568,-14.1198 3.17839,-4.96063 11.21045,-20.81768 11.21045,-22.13188 0,-0.23197 -2.08145,-1.87433 -4.62545,-3.64969 -2.544,-1.77536 -8.59857,-7.12904 -13.45461,-11.89707 l -8.82915,-8.66916 -7.2382,7.62528 c -5.75938,6.06738 -8.57668,8.20823 -13.78956,10.47859 l -6.55138,2.85332 0.5982,3.9313 c 0.329,2.16221 0.89647,4.36949 1.26103,4.90507 0.36457,0.53558 1.7289,3.75263 3.03185,7.14899 l 2.36899,6.17521 3.51368,-0.46481 c 6.33238,-0.83769 10.9175,-3.90146 21.76115,-14.54081 5.88075,-5.76995 10.84316,-10.49081 11.02758,-10.49081 0.18444,0 -1.11607,2.05514 -2.88997,4.567 -5.90092,8.35568 -15.42299,17.6442 -22.80371,22.2444 -6.92904,4.31868 -7.22823,4.65189 -5.96129,6.6392 0.73363,1.15078 3.00822,4.83108 5.05464,8.17844 2.04642,3.34737 4.03552,6.08612 4.42024,6.08612 0.38471,0 2.31379,-1.0955 4.28684,-2.43445 z m 368.46978,-0.62018 c 0.91237,-1.68005 3.08298,-5.22969 4.82361,-7.88809 1.74063,-2.6584 3.16479,-5.19688 3.16479,-5.64106 0,-0.44418 -2.01737,-1.81513 -4.48304,-3.04654 -2.46564,-1.23141 -5.09484,-3.11246 -5.84267,-4.1801 -0.7478,-1.06765 -1.35964,-1.60932 -1.35964,-1.20373 0,0.4056 -1.30404,-0.74779 -2.89791,-2.56309 -1.59386,-1.81529 -4.43915,-4.35019 -6.32289,-5.63311 -1.88378,-1.28292 -3.42801,-2.70799 -3.43166,-3.16683 -0.003,-0.45883 -2.20497,-2.89814 -4.89181,-5.42067 -2.68684,-2.52253 -4.585708,-4.88587 -4.21972,-5.25187 1.93304,-1.93304 -1.719753,-0.17695 -5.686746,2.73392 -4.152893,3.04726 -4.494629,3.59687 -3.769468,6.06198 1.958787,6.6584 12.337994,24.07615 16.809184,28.20817 3.35315,3.09876 13.74346,9.93707 15.18663,9.99498 0.6944,0.028 2.009,-1.32391 2.92134,-3.00396 z m 14.14192,-25.91529 c 1.94661,-4.15073 3.8233,-8.97094 4.17039,-10.71157 0.34712,-1.74063 1.01452,-3.16478 1.48315,-3.16478 2.01189,0 0.71315,-3.71885 -1.49204,-4.27231 -1.28925,-0.32358 -4.4662,-1.53577 -7.05989,-2.69376 -2.5937,-1.15798 -5.16952,-2.14579 -5.72406,-2.19513 -0.55454,-0.0493 -2.40213,-1.51385 -4.10576,-3.25448 -1.70359,-1.74063 -3.76952,-3.16478 -4.59094,-3.16478 -0.82144,0 -1.4935,-0.46406 -1.4935,-1.03125 0,-0.56718 -0.43318,-0.76353 -0.96261,-0.43631 -0.52946,0.32721 -0.74336,0.0234 -0.47536,-0.67487 0.2681,-0.69839 -0.47024,-1.86777 -1.64051,-2.59862 -1.98027,-1.2367 -2.45331,-0.97658 -6.82427,3.75268 -2.58307,2.79481 -4.45322,5.47513 -4.15585,5.95626 0.29731,0.48113 -0.16828,0.87478 -1.03497,0.87478 -0.86657,0 -1.29808,0.44906 -0.95887,0.99791 0.33921,0.54885 0.25562,0.93516 -0.18593,0.85846 -5.022692,-0.87251 -4.09778,2.61447 2.67226,10.07454 4.99323,5.50217 19.40881,17.29696 19.40881,15.88025 0,-0.24759 1.86236,0.39522 4.13856,1.42843 2.27621,1.03321 4.39811,1.88819 4.71535,1.89995 0.3172,0.0119 2.16945,-3.37467 4.11607,-7.5254 z m -396.141,-26.0673 c 2.68392,-1.28232 7.15703,-4.43189 9.94024,-6.99906 l 5.06038,-4.66757 -5.86101,-7.73927 c -3.22355,-4.25659 -6.23543,-8.40832 -6.69306,-9.22606 -0.6982,-1.24762 -1.70508,-0.88552 -6.25911,2.25096 -5.44042,3.74696 -11.25269,6.31455 -14.47531,6.39451 -1.26528,0.0314 -1.6014,0.62447 -1.26594,2.23374 0.25121,1.20505 1.44477,6.85139 2.65239,12.54743 l 2.19566,10.35642 4.91295,-1.40981 c 2.70213,-0.7754 7.10889,-2.45898 9.79281,-3.74129 z m 404.43668,2.20972 c 1.78001,-5.82353 3.09966,-12.8584 3.33373,-17.77147 0.20267,-4.25344 -6.4e-4,-4.84893 -1.60825,-4.71096 -1.72277,0.14786 -8.53369,-3.12292 -16.03029,-7.69816 -1.87854,-1.1465 -3.53178,-1.60197 -3.89512,-1.07314 -0.34721,0.50535 -2.35137,3.52649 -4.4537,6.71365 -2.10232,3.18716 -4.66851,6.74901 -5.70263,7.91523 -1.86731,2.10584 -1.86229,2.14392 0.73234,5.54567 3.26925,4.28619 10.54007,9.00155 18.36243,11.90866 7.84221,2.91447 8.12488,2.88915 9.26149,-0.82948 z m 4.1644,-27.7299 c 0.71524,-0.72628 1.2209,-8.2177 0.97895,-14.50284 -0.11046,-2.86844 -0.36846,-3.06648 -4.61943,-3.54563 -2.47635,-0.27911 -4.78773,-0.96912 -5.13644,-1.53334 -1.57225,-2.54397 -6.81365,1.16468 -6.88437,4.87118 -0.0183,0.89263 -0.35963,1.76903 -0.76131,1.94756 -0.40169,0.17853 -1.50759,1.80238 -2.45758,3.60856 -1.65378,3.14434 -1.65378,3.3417 0,4.64164 5.73949,4.51142 16.3775,7.0542 18.88018,4.51287 z m -414.33553,-2.09295 c 6.74977,-3.56278 6.62185,-3.0676 2.69376,-10.42712 -1.97707,-3.70417 -3.6839,-6.85391 -3.79296,-6.99942 -0.10906,-0.14552 -3.32922,0.27233 -7.15592,0.92855 l -6.95764,1.1931 v 7.51238 c 0,10.61301 0.20459,10.94485 6.35581,10.30999 2.79456,-0.28842 6.78019,-1.42129 8.85695,-2.51748 z m -4.80048,-20.06273 2.13515,-0.51655 -2.05533,-5.1078 c -1.13042,-2.80929 -2.41989,-5.52409 -2.86548,-6.03289 -0.44559,-0.5088 -0.81017,-1.69844 -0.81017,-2.64364 0,-0.94519 -0.86562,-2.18181 -1.92362,-2.74803 -1.62064,-0.86734 -2.00267,-0.68102 -2.42551,1.18296 -0.64965,2.8638 -2.45041,14.54666 -2.45996,15.95958 -0.007,1.07345 5.79664,1.02122 10.40492,-0.0936 z m 417.80838,0.82596 c 2.0205,-0.54146 2.14508,-0.97945 1.58918,-5.58593 -0.33179,-2.74913 -0.66105,-6.75121 -0.73174,-8.89352 -0.10468,-3.17667 -0.50922,-3.94944 -2.19258,-4.18966 -1.31275,-0.18733 -2.25935,0.34434 -2.60057,1.46067 -0.29518,0.96537 -1.88587,4.97757 -3.53515,8.916 -1.64925,3.93844 -2.99866,7.30236 -2.99866,7.47539 0,1.10919 7.26399,1.67608 10.46952,0.81705 z"
       id="path1" />
  </g>
</svg>
